<?xml version="1.0" encoding="utf-8"?>
<!-- Generator: Adobe Illustrator 16.0.0, SVG Export Plug-In . SVG Version: 6.00 Build 0)  -->
<!DOCTYPE svg PUBLIC "-//W3C//DTD SVG 1.1//EN" "http://www.w3.org/Graphics/SVG/1.1/DTD/svg11.dtd">
<svg version="1.1" id="Layer_1" xmlns="http://www.w3.org/2000/svg" xmlns:xlink="http://www.w3.org/1999/xlink" x="0px" y="0px"
	 width="510px" height="120px" viewBox="0 0 510 120" enable-background="new 0 0 510 120" xml:space="preserve">
<g>
	<path opacity="0.3" fill="#3764A7" d="M161.956,62.811c0.412-0.671,0.981-1.373,1.401-2.069c0.223-0.301,0.5-0.438,0.708-0.807
		c0.584-1.043,0.854-1.4,1.07-1.63c1.143-0.983,1.288-1.479,1.273-1.601c-0.069-0.576-0.586-0.717-0.82-0.751
		c-1.462-0.216-2.976,1.306-3.762,2.369c-0.525,0.71-1.218,1.602-2.117,2.195c-0.352,0.112-1.011,0.327-1.368,0.18
		c-0.941-0.385-1.375-1.819-1.649-3.349c-0.088-0.496-0.076-1.054-0.115-1.597c-0.261-1.964-0.081-4.029-0.13-5.805
		c-0.038-1.322-0.174-1.809-0.357-3.458c-0.134-1.219,0.195-4.556-1.319-4.553c-1.434,0-0.983,3.447-0.917,4.637
		c0.009,0.837-0.192,2.117-0.135,3.208c-0.183,1.483,0.026,2.297-0.236,3.615c-0.174,0.887-0.373,0.72-0.896,1.017
		c-0.406-2.66-0.782-3.588-0.872-4.356c-0.133-1.124-0.66-3.057-0.825-3.85c-0.295-1.41-0.182-4.353-1.805-4.381
		c-1.964-0.03-0.519,3.987-0.443,4.982c0.191,2.371,0.271,1.416,0.492,4.114c0.115,1.413,0.767,3.1,0.687,3.788
		c-0.049,0.424-0.476,0.404-0.671,0.392c-0.841-0.055-1.362-1.37-2.037-2.394c-0.853-1.289-1.286-1.743-2.372-3.158
		c-0.8-1.043-1.896-3.917-2.967-3.129c-0.938,0.691-0.563,1.49-0.014,2.504c0.455,0.845,1.081,1.765,1.51,2.435
		c0.638,1,0.62,1.406,1.308,2.403c0.245,0.355,1.334,1.847,1.841,2.824c0.16,0.306,0.417,0.698,0.375,0.882
		c-0.031,0.137-0.612,0.239-0.976-0.104c-0.393-0.37-0.859-0.71-1.341-1.07c-0.6-0.55-1.169-0.94-1.753-1.517
		c-0.745-0.74-0.748-0.832-1.266-1.327c-0.363-4.896-0.626-8.381-0.502-8.753c0.104-0.582,1.783-2.413,2.03-2.918
		c1.37-2.375,1.977-4.845,3.058-7.063c0.488-0.74,1.383-1.81,2.144-2.484c1.25-1.115,2.553-1.83,3.535-2.521
		c1.314-0.61,2.403-1.586,3.729-2.384c1.944-1.169,5.051-3.313,4.261-4.932c-1.138-2.34-4.808,1.27-5.791,1.724
		c-1.153,0.528-2.45,1.185-3.286,1.585c-0.556,0.266-2.201,1.061-2.951,1.28c-0.469,0.073-1.048-0.209-1.318-0.638
		c1.223-1.917,3.015-3.471,4.217-4.837c1.273-1.446,1.442-1.459,3.513-4.326c1.315-1.824,4.891-4.76,2.893-6.614
		c-1.764-1.637-3.061,1.674-5.468,4.137c-1.267,1.113-2.802,2.657-4.038,3.778c-1.764,1.817-3.095,3.483-3.095,3.483
		c-1.541,0.235-1.235-0.189-1.427-0.229c2.131-3.104,2.692-4.297,3.576-5.532c1.031-1.359,1.859-3.233,3.106-5.226
		c1.22-1.922,4.611-4.868,2.447-6.618c-1.969-1.591-3.485,1.907-5.167,4.027c-0.437,0.549-1.313,1.569-1.602,1.953
		c-1.177,1.559-0.849,1.42-1.955,2.692c-1.571,1.811-3.521,5.937-3.986,6.069c-0.624,0.177-1.338-0.698-1.391-1.43
		c-0.138-1.88,0.624-3.573,0.811-5.637c0.317-1.933,0.743-3.57,0.9-4.839c2.127-6.828,0.581-6.953,0.156-7.071
		c-2.005-0.56-2.626,2.513-3.515,5.818c-0.318,1.181-1.228,2.727-1.65,4.784c-0.692,2.353-1.014,4.372-1.554,6.498
		c-0.433,1.449-0.79,2.867-1.415,4.578c-0.579,1.589-1.619,3.995-2.378,4.21c-1.363,0.387-1.953-1.785-1.967-1.826
		c-0.457-1.293-0.931-2.704-1.521-4.017c-0.772-2.732-1.727-3.316-2.715-4.324c-0.786-0.827-2.295-1.646-3.163-0.885
		c-0.773,0.681,0.371,2.102,0.983,3.249c0.414,0.778,0.696,1.389,0.922,2.248c0.319,1.201,0.702,2.407,0.932,3.466
		c0.398,1.814,0.604,2.598,0.858,3.929c0.287,1.497,0.147,1.41,0.51,2.884c0.255,1.03,1.289,3.52,1.885,5.765
		c-0.607,1.027-0.615,2.932-0.842,4.01c-0.18,0.855-0.745,2.935-0.888,4.146c-0.096,0.828-0.503,1.829-0.941,4.69
		c-0.561-0.32-0.776-0.14-0.967-1.093c-0.281-1.42-0.055-2.297-0.252-3.894c0.061-1.173-0.155-2.554-0.146-3.453
		c0.07-1.282,0.556-4.993-0.989-4.996c-1.628-0.001-1.273,3.592-1.418,4.904c-0.197,1.774-0.343,2.299-0.384,3.723
		c-0.054,1.914,0.141,4.136-0.141,6.253c-0.043,0.583-0.03,1.182-0.125,1.718c-0.296,1.646-0.761,3.189-1.773,3.605
		c-0.388,0.158-1.095-0.076-1.473-0.195c-0.968-0.634-1.715-1.597-2.281-2.361c-0.498-0.674-1.268-1.51-2.138-2.045
		c0.351-0.366,0.698-0.751,0.988-1.284c0.996-1.831,1.244-3.587,1.319-4.556c0.056-0.715,0.22-1.665,0.363-2.3
		c0.262-0.891,0.856-2.311,1.836-3.299c1.832-2.148,2.159-2.066,3.946-4.22c0.32-0.384,1.064-1.006,1.513-1.497
		c0.986-1.325,1.722-2.241,1.01-3.14c-0.743-0.941-1.349-0.239-2.12,0.457c-1.128,1.016-0.911,0.96-2.011,2.049
		c-0.722,0.716-1.426,1.199-2.17,1.88c-0.596,0.446-1.175,0.87-1.662,1.328c-0.451,0.421-1.168,0.3-1.209,0.13
		c-0.053-0.231,0.267-0.718,0.463-1.099c0.629-1.209,1.979-3.058,2.282-3.496c0.853-1.235,0.831-1.739,1.621-2.976
		c0.532-0.833,1.308-1.972,1.873-3.02c0.679-1.256,1.144-2.246-0.02-3.1c-1.327-0.978-2.685,2.583-3.676,3.877
		c-1.345,1.751-1.881,2.314-2.936,3.912c-0.837,1.268-1.482,2.896-2.527,2.966c-0.238,0.016-0.77,0.039-0.829-0.486
		c-0.099-0.853,0.708-2.945,0.851-4.695c0.273-3.344,0.373-2.158,0.61-5.096c0.094-1.233,1.884-6.214-0.551-6.173
		c-2.008,0.034-1.87,3.682-2.236,5.428c-0.205,0.981-0.859,3.378-1.02,4.769c-0.111,0.953-0.578,2.105-1.085,5.398
		c-0.646-0.367-0.892-0.162-1.11-1.258c-0.324-1.635-0.063-2.641-0.291-4.478c0.069-1.352-0.179-2.939-0.168-3.975
		c0.082-1.477,0.64-5.747-1.137-5.75c-1.875,0-1.465,4.132-1.633,5.645c-0.226,2.042-0.396,2.645-0.443,4.283
		c-0.061,2.202,0.164,4.758-0.162,7.194c-0.049,0.671-0.033,1.361-0.143,1.979c-0.34,1.892-0.874,3.668-2.041,4.15
		c-0.446,0.18-1.257-0.089-1.695-0.225c-1.112-0.733-1.973-1.839-2.625-2.72c-0.152-0.206-0.333-0.428-0.528-0.652
		c0.02-0.708,0.075-1.476,0.108-2.25c0.029-0.657,0.133-1.148,0.308-1.785c0.256-0.94,0.851-2.181,0.192-2.509
		c-0.734-0.365-1.68,0.521-2.11,1.267c-0.503,0.847-1.039,1.445-1.218,3.179c-0.463-0.175-0.939-0.256-1.413-0.186
		c-0.29,0.041-0.932,0.217-1.017,0.932c-0.018,0.151,0.161,0.763,1.578,1.983c0.113,0.12,0.24,0.273,0.4,0.503
		c-0.015,0.125-0.032,0.257-0.047,0.381c-0.004,0.031-0.086,1.697-1.116,1.697c-0.572,0-1.689-1.501-2.347-2.513
		c-0.708-1.091-1.184-2.027-1.715-2.972c-0.716-1.402-1.259-2.771-2.119-4.308c-0.619-1.376-1.506-2.289-1.917-3.067
		c-1.146-2.17-2.065-4.231-3.404-3.426c-0.285,0.169-1.364,0.57,1.211,4.997c0.309,0.871,0.868,1.949,1.394,3.26
		c0.453,1.43,1.257,2.482,1.453,3.846c0.075,0.53-0.298,1.299-0.768,1.299c-0.353,0-2.38-2.54-3.78-3.509
		c-0.984-0.685-0.729-0.65-1.808-1.522c-0.266-0.214-1.048-0.762-1.444-1.063c-1.525-1.168-3.149-3.35-4.302-1.82
		c-1.269,1.682,1.605,3.091,2.771,4.212c1.197,1.165,2.076,2.332,3.021,3.087c0.82,0.702,1.406,1.436,3.404,3.213
		c-0.13,0.066,0.154,0.307-0.979,0.45c0,0-1.206-0.916-2.743-1.851c-1.052-0.546-2.384-1.335-3.46-1.87
		c-1.785-1.079-3.092-2.75-4.058-2.28c-0.039-0.07-0.07-0.142-0.126-0.212c-0.763-0.963-1.381-0.245-2.172,0.468
		c-1.155,1.041-0.933,0.982-2.057,2.099c-0.74,0.732-1.462,1.226-2.224,1.923c-0.61,0.456-1.202,0.891-1.701,1.358
		c-0.46,0.432-1.196,0.308-1.237,0.133c-0.055-0.235,0.273-0.732,0.476-1.123c0.642-1.238,2.023-3.13,2.333-3.581
		c0.872-1.263,0.851-1.779,1.66-3.044c0.542-0.853,1.338-2.02,1.916-3.092c0.697-1.286,1.171-2.297-0.018-3.174
		c-1.36-1.001-2.749,2.646-3.766,3.969c-1.376,1.794-1.924,2.37-3.004,4.005c-0.859,1.299-1.518,2.966-2.587,3.037
		c-0.244,0.016-0.787,0.039-0.849-0.496c-0.102-0.876,0.724-3.017,0.872-4.807c0.279-3.422,0.38-2.209,0.625-5.218
		c0.095-1.264,1.928-6.361-0.566-6.32c-2.055,0.035-1.914,3.768-2.288,5.557c-0.212,1.005-0.881,3.457-1.046,4.884
		c-0.114,0.974-0.59,2.152-1.109,5.523c-0.661-0.375-0.913-0.164-1.135-1.286c-0.334-1.673-0.066-2.706-0.301-4.585
		c0.073-1.384-0.183-3.01-0.172-4.069c0.083-1.509,0.656-5.884-1.162-5.884c-1.92-0.001-1.501,4.23-1.672,5.778
		c-0.234,2.091-0.406,2.706-0.453,4.382c-0.064,2.257,0.166,4.873-0.167,7.368c-0.05,0.686-0.034,1.395-0.146,2.024
		c-0.348,1.937-0.896,3.757-2.09,4.247c-0.454,0.188-1.287-0.089-1.733-0.228c-1.141-0.75-2.021-1.884-2.687-2.786
		c-0.997-1.345-2.915-3.278-4.771-3.005c-0.299,0.045-0.954,0.225-1.042,0.957c-0.019,0.153,0.165,0.781,1.614,2.028
		c0.274,0.292,0.616,0.747,1.358,2.067c0.263,0.47,0.614,0.641,0.896,1.027c0.41,0.679,0.933,1.365,1.39,2.034
		c-0.221,0.5-0.394,1.139-0.454,2.14c-0.202,0.991-0.314,2.021-0.428,2.973c-0.005,0.03-0.081,1.593-1.046,1.593
		c-0.539,0-1.586-1.411-2.206-2.361c-0.666-1.024-1.111-1.903-1.612-2.789c-0.673-1.317-1.183-2.606-1.988-4.049
		c-0.288-0.639-0.638-1.172-0.964-1.636c1.106-1.332,1.335-2.166,2.112-3.431c0.581-0.949,1.384-1.939,1.978-2.919
		c0.313-0.426,0.705-0.62,0.995-1.14c0.826-1.468,1.206-1.975,1.512-2.3c1.61-1.386,1.814-2.084,1.793-2.256
		c-0.097-0.812-0.825-1.011-1.157-1.06c-2.063-0.306-4.197,1.843-5.304,3.341c-0.741,1-1.72,2.262-2.986,3.095
		c-0.497,0.157-1.423,0.462-1.929,0.253c-1.329-0.544-1.938-2.568-2.325-4.722c-0.123-0.7-0.106-1.487-0.162-2.25
		c-0.369-2.774-0.114-5.684-0.186-8.188c-0.053-1.866-0.245-2.552-0.501-4.876c-0.191-1.721,0.275-6.424-1.86-6.423
		c-2.021,0.002-1.386,4.864-1.293,6.542c0.012,1.178-0.272,2.984-0.191,4.525c-0.26,2.087,0.038,3.237-0.333,5.097
		c-0.248,1.248-0.527,1.013-1.263,1.431c-0.577-3.75-1.106-5.058-1.234-6.141c-0.185-1.586-0.928-4.313-1.162-5.43
		c-0.418-1.989-0.26-6.14-2.546-6.177c-2.772-0.047-0.733,5.621-0.626,7.025c0.271,3.343,0.381,1.997,0.695,5.8
		c0.164,1.99,1.08,4.372,0.968,5.343c-0.068,0.597-0.672,0.57-0.944,0.552c-1.188-0.078-1.922-1.933-2.876-3.375
		c-1.201-1.818-1.81-2.457-3.34-4.453c-1.132-1.472-2.673-5.524-4.187-4.412c-1.321,0.973-0.793,2.101-0.021,3.529
		c0.644,1.192,1.528,2.489,2.131,3.438c0.899,1.407,0.876,1.978,1.846,3.384c0.346,0.502,1.881,2.605,2.596,3.982
		c0.225,0.432,0.588,0.988,0.527,1.248c-0.044,0.193-0.863,0.333-1.375-0.148c-0.554-0.521-1.213-1.002-1.892-1.51
		c-0.848-0.777-1.649-1.325-2.471-2.14c-1.251-1.239-1.004-1.176-2.289-2.333c-0.876-0.791-1.567-1.592-2.412-0.52
		c-0.81,1.024,0.027,2.063,1.147,3.572c0.513,0.561,1.36,1.27,1.722,1.706c2.038,2.452,2.409,2.358,4.494,4.802
		c1.115,1.125,1.792,2.745,2.088,3.756c0.164,0.723,0.351,1.803,0.415,2.618c0.086,1.105,0.366,3.098,1.5,5.184
		c1.133,2.086,3.051,2.199,3.207,6.169c0.103,2.659-0.807,13.999-1.601,23.861c-0.081,0.002-0.157-0.008-0.219-0.033
		c-0.641-0.263-0.936-1.24-1.123-2.281c-0.06-0.339-0.053-0.719-0.078-1.09c-0.177-1.339-0.056-2.745-0.089-3.956
		c-0.025-0.903-0.119-1.233-0.244-2.356c-0.09-0.832,0.134-3.106-0.899-3.106c-0.976,0.002-0.669,2.35-0.625,3.164
		c0.006,0.567-0.13,1.439-0.091,2.186c-0.125,1.011,0.018,1.565-0.16,2.465c-0.119,0.603-0.257,0.489-0.611,0.692
		c-0.279-1.813-0.537-2.446-0.597-2.972c-0.089-0.765-0.449-2.082-0.563-2.621c-0.199-0.963-0.124-2.969-1.229-2.988
		c-1.339-0.021-0.354,2.717-0.303,3.397c0.131,1.615,0.186,0.962,0.335,2.803c0.079,0.962,0.522,2.114,0.468,2.583
		c-0.033,0.289-0.325,0.276-0.457,0.266c-0.574-0.037-0.93-0.932-1.39-1.63c-0.581-0.878-0.875-1.188-1.614-2.154
		c-0.546-0.71-1.294-2.669-2.023-2.131c-0.641,0.472-0.384,1.016-0.012,1.705c0.311,0.577,0.737,1.203,1.032,1.663
		c0.434,0.679,0.422,0.955,0.892,1.635c0.166,0.244,0.909,1.259,1.254,1.925c0.107,0.21,0.284,0.479,0.256,0.604
		c-0.021,0.094-0.417,0.161-0.666-0.073c-0.269-0.251-0.585-0.483-0.913-0.729c-0.412-0.375-0.798-0.642-1.196-1.034
		c-0.604-0.601-0.485-0.568-1.106-1.129c-0.423-0.383-0.758-0.768-1.166-0.251c-0.391,0.495,0.015,0.998,0.557,1.727
		c0.246,0.271,0.656,0.614,0.831,0.826c0.983,1.185,1.165,1.14,2.171,2.32c0.54,0.543,0.867,1.327,1.012,1.816
		c0.078,0.352,0.168,0.871,0.197,1.265c0.044,0.535,0.18,1.5,0.727,2.507c0.547,1.009,1.474,1.063,1.548,2.982
		c0.082,2.089-2.472,14.969-2.786,18.122C4.376,104.805,3.124,116,3.124,120c1.104,0,2.269,0,4.668,0
		c0.273-2,1.778-13.726,1.922-17.527c0.124-3.292,0.938-14.404,0.938-16.785c0-1.66,0.075-1.888,1.498-2.956
		c0.409-0.307,0.677-0.549,0.887-0.789c-0.315,3.968-0.566,7.158-0.657,8.938c-0.097,1.887-1.346,25.12-1.02,29.12
		c2.28,0,5.149,0,10.116,0c0.625-7,1.065-32.201,1.065-40.074c0-3.593-0.39-13.264-0.578-19.902
		c0.194,0.055,0.391,0.139,0.591,0.172c0.755,0.274,1.73,0.524,2.729,1.028c0.606,0.307,1.361,0.861,1.795,1.261
		c1.046,1.276,2.208,2.704,3.47,4.031c0.239,0.287,1.728,1.168,1.884,1.538c0.102,0.167-0.169,1.685-0.632,3.957
		c-0.213-0.035-0.433-0.102-0.582-0.147c-0.679-0.446-1.203-1.123-1.599-1.658c-0.593-0.802-1.735-1.952-2.84-1.79
		c-0.176,0.027-0.567,0.135-0.62,0.57c-0.011,0.089,0.1,0.464,0.96,1.206c0.164,0.175,0.367,0.444,0.809,1.231
		c0.157,0.277,0.367,0.383,0.535,0.611c0.316,0.523,0.747,1.055,1.057,1.563c0.485,0.79,0.567,1.259,1.457,2.205
		c0.009,0.009,0.014,0.017,0.022,0.025c-1.215,5.71-2.854,13.14-3.532,17.96c-0.5,3.557-2.855,20.212-3.62,26.212
		c0.421,0,6.694,0,8.363,0c1.614-7,2.726-19,3.429-29.641c0.369,4.829,0.826,10.109,0.998,11.904
		C37.04,106.455,37.671,116,38.381,120c2.658,0,4.369,0,5.591,0c-0.27-6-1.08-14.411-1.804-18.81
		c-0.569-3.451-3.5-18.052-3.41-20.366c0.082-2.127,1.11-2.151,1.717-3.27c0.607-1.116,0.757-2.168,0.804-2.761
		c0.033-0.436,0.133-1.005,0.219-1.391c0.16-0.544,0.525-1.408,1.12-2.01c1.116-1.308,1.316-1.255,2.405-2.565
		c0.195-0.235,0.648-0.614,0.922-0.913c0.6-0.809,1.049-1.366,0.616-1.913c-0.453-0.574-0.823-0.145-1.292,0.277
		c-0.688,0.621-0.556,0.588-1.226,1.248c-0.441,0.44-0.87,0.732-1.323,1.146c-0.365,0.273-0.718,0.529-1.014,0.811
		c-0.273,0.259-0.711,0.182-0.736,0.077c-0.033-0.138,0.162-0.436,0.283-0.665c0.383-0.739,1.205-1.865,1.39-2.135
		c0.52-0.751,0.505-1.058,0.988-1.812c0.324-0.509,0.796-1.202,1.142-1.84c0.414-0.766,0.696-1.37-0.014-1.891
		c-0.808-0.595-1.633,1.575-2.238,2.362c-0.822,1.069-1.147,1.412-1.789,2.387c-0.513,0.771-0.904,1.765-1.542,1.806
		c-0.145,0.008-0.468,0.025-0.505-0.297c-0.059-0.519,0.431-1.795,0.519-2.861c0.018-0.212,0.033-0.387,0.049-0.544
		c0.788-1.106,1.444-2.292,1.418-3.393c-0.039-1.742,0.408-4.136,0.429-4.997c0.028-1.054-0.054-0.971-0.08-2.025
		c-0.025-0.936,0-1.498,0-2.789c0-0.178,0.014-0.379,0.021-0.57c0.195,0.247,0.413,0.504,0.686,0.795
		c1.867,1.982,1.515,2.928,4.161,4.913c2.647,1.988,2.787,2.477,2.787,5.564c0,4.435-1.17,25.898-1.17,30.152
		c0,7.083,0.811,19.276,1.52,28.276c4.466,0,7.045,0,9.097,0c0.24-11-0.851-25.4-0.947-28.419
		c-0.188-5.896-2.527-28.12-2.376-32.007c0.139-3.571,1.863-3.638,2.883-5.514c0.327-0.604,0.568-1.176,0.757-1.737
		c0.001,0.419,0.226,0.89,0.51,1.415c0.425,0.787,1.011,1.648,1.411,2.273c0.595,0.933,0.58,1.313,1.219,2.243
		c0.229,0.332,1.244,1.722,1.717,2.634c0.148,0.284,0.388,0.652,0.349,0.825c-0.031,0.127-0.572,0.221-0.909-0.098
		c-0.368-0.345-0.802-0.664-1.253-0.997c-0.559-0.516-1.089-0.875-1.633-1.416c-0.827-0.819-0.664-0.778-1.512-1.542
		c-0.581-0.523-1.037-1.052-1.596-0.343c-0.535,0.675,0.019,1.364,0.76,2.363c0.337,0.37,0.898,0.837,1.138,1.125
		c1.347,1.619,1.592,1.56,2.971,3.176c0.736,0.744,1.186,1.814,1.381,2.483c0.107,0.479,0.231,1.192,0.272,1.732
		c0.058,0.729,0.243,2.046,0.993,3.427c0.749,1.378,2.015,1.453,2.119,4.079c0.111,2.858-1.441,18.125-1.731,22.45
		C64.497,100.348,63.902,108,63.932,120c1.507,0,3.405,0,6.688,0c0.251-7,0.844-14.407,1.028-19.35
		c0.115-3.124-0.771-20.34-0.771-23.598c0-2.268,0.103-2.594,2.049-4.055c1.944-1.461,1.686-2.137,3.059-3.597
		c1.098-1.165,1.201-1.742,1.798-2.716c0.384-0.626,0.917-1.278,1.307-1.925c0.209-0.282,0.466-0.408,0.661-0.751
		c0.545-0.971,0.796-1.304,0.996-1.521c1.065-0.917,1.2-1.375,1.188-1.49c-0.065-0.536-0.546-0.668-0.766-0.701
		c-1.365-0.204-2.775,1.218-3.507,2.207c-0.491,0.665-1.136,1.497-1.974,2.048c-0.33,0.104-0.942,0.306-1.275,0.169
		c-0.879-0.361-1.282-1.698-1.538-3.123c-0.081-0.464-0.071-0.981-0.107-1.489c-0.245-1.831-0.076-3.756-0.123-5.414
		c-0.035-1.233-0.16-1.687-0.332-3.221c-0.125-1.138,0.182-4.248-1.23-4.246c-1.335,0-0.915,3.215-0.855,4.325
		c0.008,0.778-0.179,1.97-0.125,2.99c-0.173,1.381,0.023,2.142-0.22,3.369c-0.163,0.828-0.35,0.671-0.837,0.95
		c-0.379-2.48-0.729-3.347-0.813-4.063c-0.122-1.047-0.615-2.851-0.769-3.589c-0.276-1.313-0.171-4.06-1.683-4.085
		c-1.833-0.031-0.486,3.716-0.415,4.646c0.179,2.21,0.255,1.319,0.459,3.836c0.107,1.315,0.715,2.89,0.64,3.531
		c-0.045,0.396-0.444,0.379-0.624,0.365c-0.786-0.051-1.272-1.276-1.901-2.23c-0.795-1.203-1.197-1.626-2.209-2.946
		c-0.748-0.973-1.768-3.653-2.768-2.918c-0.159,0.118-0.266,0.24-0.35,0.364c0.266-0.951,0.373-1.781,0.417-2.345
		c0.057-0.733,0.226-1.704,0.373-2.352c0.267-0.913,0.877-2.369,1.879-3.379c1.874-2.199,2.208-2.116,4.041-4.322
		c0.328-0.393,1.088-1.029,1.549-1.533c0.259-0.35,0.5-0.671,0.705-0.971c0.636,0.999,2.251,1.843,3.068,2.531
		c1.92,1.621,2.041,1.597,3.17,2.37c1.069,0.727,2.584,1.468,3.752,2.586c-0.125,0.361-0.492,0.677-0.837,0.718
		c-0.57-0.003-1.862-0.237-2.298-0.313c-0.658-0.115-1.682-0.319-2.584-0.462c-0.771-0.123-3.941-1.946-4.387-0.054
		c-0.311,1.313,2.234,2.208,3.797,2.645c1.067,0.299,1.996,0.772,3.024,0.943c0.807,0.293,1.844,0.538,2.905,1.077
		c0.646,0.327,1.452,0.904,1.914,1.334c1.111,1.359,2.351,2.874,3.693,4.286c0.136,0.164,0.649,0.507,1.125,0.851
		c-0.45-0.234-0.828-0.236-1.148,0.25c-0.733,1.117,0.813,2.035,1.86,2.767c-0.114,0.93-0.274,2.107-0.467,3.472
		c-0.678-0.149-1.306-0.104-1.467,0.578c-0.134,0.572,0.445,1.034,1.185,1.393c-1.207,8.306-3.201,20.964-3.672,26.527
		C79.372,100.24,79.372,111,78.674,120c0.448,0,7.954,0,8.99,0c1.202-10,2.28-38.313,2.08-54.293
		c0.117,0.052,0.233,0.164,0.352,0.225c0.491,0.248,1.102,0.724,1.454,1.049c0.847,1.034,1.789,2.203,2.81,3.278
		c0.193,0.232,1.399,0.95,1.524,1.25c0.286,0.473-0.499,17.297-0.106,26.314c0.203,4.641-0.15,6.177,0.503,22.177
		c0.342,0,6.589,0,7.377,0c-0.175-19-3.14-44.174-3.789-49.427c-0.119-0.966,2.737-2.882,2.687-5.099
		c-0.031-1.406,0.331-3.312,0.347-4.01c0.023-0.854-0.042-0.768-0.064-1.621c-0.02-0.761,0-1.208,0-2.252
		c0-0.608,0.063-1.317,0.094-2.013c0.014-0.339,0.064-0.625,0.13-0.922c0.235,0.695,0.281,1.537,0.439,2.88
		c0.576,4.896,2.158,22.337,3.407,34.186c0.725,6.87,2.208,17.278,3.895,28.278c4.363,0,6.179,0,8.183,0
		c-0.155-3-2.597-23.203-4.08-32.336c-2.242-13.807-5.57-28.281-5.422-32.08c0.035-0.911,0.178-1.553,0.385-2.094
		c0.007,0.006,0.011,0.028,0.018,0.034c0.233,0.25,0.522,0.643,1.151,1.765c0.224,0.396,0.523,0.549,0.763,0.874
		c0.453,0.748,1.065,1.507,1.508,2.232c0.689,1.123,0.811,1.796,2.078,3.145c1.586,1.684,1.286,2.488,3.533,4.173
		c2.246,1.688,2.363,2.105,2.363,4.726c0,3.763-0.751,21.439-0.751,25.05c0,6.013,0.386,15.513,1.049,24.513
		c3.792,0,5.983,0,7.724,0c0.042-9-0.771-22.995-0.857-24.218c-0.414-5.853-2.092-23.751-1.965-27.052
		c0.118-3.033,1.583-3.083,2.449-4.675c0.865-1.595,1.079-3.102,1.146-3.944c0.049-0.624,0.191-1.44,0.314-1.991
		c0.228-0.774,0.745-2.007,1.597-2.864c0.483-0.567,0.84-1.081,1.155-1.398C132.601,63.431,130.811,81,132.519,120
		c1.478,0,8.76,0,10.036,0c0.952-13,0.197-33.048,0.25-39.245c0.061-7.052-0.556-16.493-1.101-24.001
		c1.197,1.394,1.536,1.501,2.907,3.113c0.79,0.798,1.271,1.963,1.482,2.683c0.114,0.514,0.247,1.284,0.292,1.861
		c0.062,0.785,0.26,2.202,1.064,3.683c0.804,1.479,2.164,1.562,2.271,4.379c0.119,3.065-1.582,22.288-1.895,26.923
		c-0.168,2.476-0.909,12.605-0.428,20.605c1.618,0,4.097,0,7.618,0c-0.094-7,0.656-15.178,0.656-20.761
		c0-3.354-1.123-21.817-1.123-25.315c0-2.432,0.11-2.784,2.197-4.352c2.087-1.564,1.808-2.291,3.28-3.857
		C161.204,64.463,161.314,63.857,161.956,62.811z M24.852,57.637c-0.534-0.001-1.748-0.22-2.158-0.293
		c-0.227-0.039-0.507-0.092-0.804-0.146c-0.018-0.855-0.027-1.599-0.027-2.19c0-0.227,0.001-0.439,0.003-0.642
		c0.079,0.053,0.157,0.104,0.249,0.167c1.003,0.684,2.428,1.38,3.525,2.43C25.521,57.301,25.176,57.599,24.852,57.637z
		 M26.319,53.662c0,0-1.132-0.861-2.575-1.74c-0.401-0.208-0.849-0.457-1.303-0.709c0.265-0.447,0.649-0.869,1.208-1.352
		c0.131,0.122,0.262,0.252,0.395,0.359c0.77,0.657,1.321,1.348,3.196,3.017C27.118,53.298,27.383,53.524,26.319,53.662z
		 M29.249,50.796c-0.296,0-1.848-1.9-3.113-2.956c1.094-1.025,1.493-1.824,2.099-2.756c0.122,0.28,0.247,0.573,0.37,0.881
		c0.427,1.344,1.183,2.33,1.367,3.612C30.04,50.073,29.69,50.796,29.249,50.796z M89.746,63.083c-0.016,0-0.037-0.002-0.053-0.003
		c-0.01-0.392-0.021-0.775-0.032-1.145c0.251,0.185,0.496,0.383,0.724,0.6C90.288,62.809,90.009,63.05,89.746,63.083z M90.934,59.86
		c0,0-0.584-0.442-1.412-0.981c-0.034-0.553-0.071-1.058-0.113-1.518c0.496,0.466,1.017,1.04,2.271,2.156
		C91.582,59.568,91.796,59.752,90.934,59.86z M93.307,57.541c-0.268,0-1.811-1.933-2.874-2.667c-0.22-0.153-0.354-0.256-0.461-0.347
		c0.562-0.75,1.356-1.658,2.061-2.627c0.224,0.507,0.491,1.077,0.753,1.729c0.345,1.089,0.956,1.887,1.104,2.925
		C93.947,56.956,93.665,57.541,93.307,57.541z M100.749,56.037c-0.165,0.802-0.254,1.638-0.348,2.409
		c-0.002,0.023-0.064,1.29-0.848,1.29c-0.438,0-1.285-1.141-1.786-1.912c-0.538-0.829-0.9-1.54-1.306-2.259
		c-0.544-1.067-0.956-2.108-1.61-3.276c-0.47-1.046-1.146-1.742-1.457-2.334c-0.039-0.073-0.076-0.145-0.113-0.217
		c0.185-0.481,0.3-0.959,0.291-1.421c-0.039-1.735,0.369-4.056,0.442-5.105c0.106,0.158,0.214,0.316,0.31,0.474
		c0.795,1.294,0.933,2.069,2.391,3.619c1.823,1.937,1.479,2.858,4.065,4.799c0.453,0.339,0.814,0.634,1.114,0.906
		c-0.07,0.092-0.135,0.184-0.187,0.274C101.292,53.978,100.844,54.44,100.749,56.037z M127.1,50.092
		c-0.209,0.013-0.67,0.032-0.721-0.422c-0.085-0.742,0.613-2.561,0.74-4.082c0.238-2.905,0.322-1.875,0.53-4.43
		c0.013-0.168,0.064-0.422,0.13-0.72c1.227,1.5,2.914,2.722,4.023,3.733c-1.134,1.475-1.601,1.974-2.505,3.343
		C128.567,48.615,128.007,50.032,127.1,50.092z M132.132,51.375c-0.518,0.388-1.021,0.757-1.445,1.154
		c-0.392,0.367-1.015,0.26-1.05,0.112c-0.046-0.199,0.231-0.623,0.403-0.951c0.546-1.054,1.719-2.659,1.982-3.042
		c0.593-0.858,0.704-1.313,1.073-2.009c0.152,1.098,0.203,2.322,0.186,3.764C132.903,50.719,132.523,51.017,132.132,51.375z"/>
	<path opacity="0.3" fill="#3764A7" d="M225.328,71.271c0.562-0.757,0.981-1.277,0.576-1.792c-0.423-0.535-0.769-0.137-1.209,0.26
		c-0.642,0.582-0.519,0.548-1.146,1.171c-0.412,0.406-0.815,0.685-1.239,1.071c-0.339,0.257-0.669,0.496-0.948,0.758
		c-0.256,0.238-0.666,0.171-0.689,0.072c-0.031-0.129,0.152-0.406,0.266-0.626c0.357-0.687,1.127-1.742,1.3-1.992
		c0.487-0.704,0.473-0.99,0.924-1.698c0.304-0.474,0.747-1.125,1.069-1.722c0.388-0.716,0.651-1.282-0.012-1.77
		c-0.756-0.558-1.531,1.476-2.097,2.212c-0.768,1-1.072,1.32-1.675,2.232c-0.476,0.722-0.845,1.651-1.44,1.69
		c-0.139,0.01-0.44,0.023-0.475-0.275c-0.056-0.487,0.406-1.682,0.488-2.679c0.153-1.906,0.21-1.23,0.346-2.907
		c0.055-0.703,1.073-3.544-0.314-3.521c-1.146,0.02-1.067,2.1-1.275,3.096c-0.116,0.561-0.492,1.927-0.582,2.721
		c-0.063,0.544-0.328,1.2-0.617,3.078c-0.371-0.209-0.51-0.092-0.634-0.717c-0.185-0.933-0.037-1.508-0.167-2.554
		c0.042-0.772-0.102-1.678-0.096-2.268c0.047-0.842,0.365-3.276-0.647-3.28c-1.07,0-0.837,2.358-0.933,3.219
		c-0.129,1.168-0.225,1.51-0.252,2.444c-0.035,1.256,0.094,2.714-0.092,4.103c-0.029,0.383-0.02,0.777-0.081,1.129
		c-0.195,1.078-0.5,2.093-1.166,2.367c-0.254,0.103-0.717-0.051-0.966-0.129c-0.634-0.416-1.125-1.05-1.498-1.549
		c-0.379-0.515-1-1.172-1.684-1.493c0.953-1.04,1.069-1.592,1.619-2.489c0.365-0.591,0.87-1.215,1.24-1.83
		c0.198-0.267,0.444-0.389,0.626-0.715c0.516-0.92,0.756-1.237,0.947-1.442c1.011-0.871,1.139-1.307,1.126-1.414
		c-0.061-0.512-0.519-0.637-0.726-0.667c-1.295-0.19-2.633,1.156-3.328,2.095c-0.464,0.63-1.08,1.422-1.873,1.942
		c-0.311,0.098-0.894,0.292-1.21,0.16c-0.833-0.34-1.216-1.609-1.458-2.962c-0.078-0.439-0.066-0.934-0.103-1.413
		c-0.231-1.737-0.073-3.564-0.116-5.137c-0.034-1.17-0.154-1.599-0.316-3.057c-0.119-1.082,0.173-4.03-1.165-4.03
		c-0.009,0-0.017,0.004-0.026,0.004c1.404-0.834,1.907-0.919,3.714-2.136c0.384-0.259,1.215-0.607,1.747-0.926
		c1.217-0.928,2.112-1.552,1.663-2.601c-0.468-1.093-1.192-0.628-2.067-0.219c-1.279,0.6-1.066,0.615-2.336,1.288
		c-0.833,0.446-1.598,0.677-2.445,1.084c-0.656,0.23-1.29,0.45-1.846,0.724c-0.515,0.255-1.15-0.077-1.148-0.245
		c0.003-0.229,0.412-0.582,0.683-0.872c0.863-0.932,2.541-2.233,2.924-2.548c1.075-0.884,1.172-1.355,2.191-2.262
		c0.685-0.608,1.668-1.43,2.435-2.226c0.919-0.958,1.579-1.731,0.703-2.875c-1-1.305-3.084,1.578-4.302,2.474
		c-1.653,1.214-2.277,1.572-3.626,2.733c-1.07,0.917-2.043,2.23-3.026,1.978c-0.225-0.059-0.721-0.197-0.656-0.701
		c0.108-0.819,1.34-2.51,1.879-4.082c1.03-3.012,0.848-1.886,1.75-4.533c0.373-1.112,3.186-5.176,0.925-5.876
		c-1.865-0.576-2.585,2.84-3.331,4.345c-0.417,0.846-1.578,2.863-2.054,4.103c-0.322,0.846-1.021,1.771-2.255,4.663
		c-0.513-0.536-0.789-0.418-0.734-1.499c0.08-1.61,0.554-2.464,0.771-4.23c0.381-1.229,0.518-2.772,0.769-3.729
		c0.417-1.34,1.929-5.121,0.285-5.659c-1.734-0.569-2.318,3.377-2.825,4.723c-0.682,1.823-0.979,2.328-1.402,3.831
		c-0.57,2.016-0.957,4.45-1.823,6.604c-0.201,0.606-0.349,1.25-0.593,1.788c-0.753,1.646-1.662,3.13-2.853,3.219
		c-0.455,0.033-1.143-0.46-1.514-0.718c-0.49-0.577-0.867-1.24-1.181-1.892c0.106-0.159,0.213-0.319,0.308-0.477
		c0.266-0.359,0.595-0.523,0.842-0.964c0.695-1.239,1.015-1.666,1.275-1.941c1.36-1.169,1.532-1.757,1.514-1.904
		c-0.082-0.685-0.699-0.854-0.978-0.896c-1.743-0.259-3.542,1.557-4.478,2.821c-0.014,0.019-0.03,0.04-0.045,0.059
		c-0.678-1.077-1.593-2.057-2.683-2.245c-0.28-0.047-0.912-0.08-1.159,0.556c-0.05,0.133-0.027,0.755,0.999,2.31
		c0.156,0.298,0.333,0.724,0.615,1.74c-0.085,0.062-0.161,0.135-0.249,0.192c-0.418,0.132-1.201,0.39-1.627,0.214
		c-1.121-0.459-1.636-2.168-1.961-3.986c-0.104-0.593-0.09-1.256-0.138-1.9c-0.312-2.341-0.097-4.799-0.155-6.913
		c-0.045-1.575-0.207-2.154-0.423-4.116c-0.162-1.452,0.232-5.423-1.571-5.421c-1.707,0.001-1.17,4.104-1.093,5.522
		c0.01,0.994-0.229,2.519-0.16,3.82c-0.22,1.764,0.031,2.733-0.282,4.302c-0.208,1.055-0.445,0.854-1.067,1.209
		c-0.485-3.166-0.934-4.272-1.041-5.186c-0.155-1.339-0.784-3.642-0.981-4.584c-0.351-1.678-0.219-5.183-2.147-5.215
		c-2.34-0.038-0.621,4.747-0.531,5.932c0.229,2.823,0.323,1.685,0.588,4.897c0.137,1.681,0.911,3.69,0.817,4.511
		c-0.058,0.504-0.567,0.48-0.798,0.467c-1.002-0.068-1.621-1.632-2.426-2.849c-1.016-1.538-1.529-2.076-2.822-3.76
		c-0.952-1.244-2.257-4.664-3.533-3.727c-1.117,0.823-0.67,1.773-0.02,2.981c0.544,1.005,1.291,2.102,1.801,2.9
		c0.76,1.191,0.74,1.672,1.558,2.859c0.292,0.424,1.588,2.198,2.192,3.36c0.189,0.366,0.498,0.833,0.445,1.053
		c-0.039,0.165-0.729,0.283-1.161-0.125c-0.468-0.438-1.024-0.845-1.598-1.273c-0.715-0.654-1.393-1.118-2.085-1.806
		c-1.058-1.048-0.848-0.994-1.932-1.97c-0.74-0.668-1.322-1.343-2.036-0.439c-0.684,0.865,0.022,1.743,0.969,3.017
		c0.434,0.472,1.146,1.07,1.456,1.438c1.717,2.072,2.031,1.992,3.791,4.056c0.941,0.949,1.513,2.314,1.764,3.169
		c0.138,0.613,0.296,1.522,0.349,2.21c0.072,0.931,0.31,2.617,1.267,4.378c0.957,1.76,2.576,1.855,2.706,5.207
		c0.143,3.651-4.857,26.341-5.572,31.819c-0.867,6.648-1.777,12-4.27,30c1.925,0,6.406,0,10.599,0
		c1.483-14,1.889-20.112,2.669-28.276c0.174-1.819,0.677-7.862,1.17-14.202c-0.197,5.684,1.427,31.479,3.047,42.479
		c1.211,0,6.926,0,7.325,0c-0.437-4-2.376-18.11-2.915-20.953c-1.198-6.32-4.384-21.049-4.062-21.492
		c0.146-0.283,1.402-0.837,1.612-1.049c1.098-0.97,2.125-2.005,3.043-2.95c0.375-0.29,1.019-0.658,1.526-0.857
		c0.835-0.328,1.636-0.433,2.262-0.594c0.644-0.039,1.252-0.232,1.903-0.384c-0.466,7.504-0.741,17.689-0.87,21.39
		c-0.229,6.652,0.271,24.89,0.486,26.89c4.735,0,5.826,0,8.113,0c0.158-12,0.382-19.787-0.109-29.814
		c-0.248-5.087-1.62-20.012-1.051-25.105c0.459,0.451,0.859,0.839,1.633,1.746c0.699,0.705,1.123,1.738,1.31,2.373
		c0.102,0.453,0.22,1.14,0.259,1.65c0.054,0.692,0.23,1.948,0.94,3.255c0.712,1.311,1.915,1.386,2.011,3.874
		c0.106,2.712,0.292,19.495,0.665,23.588c0.089,1.001,0.162,10.434,0.993,18.434c1.431,0,4.552,0,7.667,0
		c-0.328-2-1.421-14.187-2.079-19.972c-0.333-2.945-2.699-18.116-2.699-21.208c0-2.154-0.176-2.022,1.668-3.405
		c1.277-0.958,1.558-1.558,2.038-2.3c0.088,0.084,0.185,0.181,0.298,0.278c0.153,0.163,0.343,0.419,0.756,1.155
		c0.147,0.26,0.343,0.36,0.5,0.576c0.295,0.49,0.701,0.986,0.99,1.463c0.452,0.738,0.53,1.179,1.365,2.065
		c1.039,1.104,0.843,1.632,2.318,2.735c1.473,1.109,1.551,1.382,1.551,3.099c0,2.474-0.992,15.16-0.992,17.53
		c0,3.945,0.112,15.982,0.508,17.982c2.49,0,4.743,0,5.886,0c-0.372-3-0.591-15.014-0.771-17.451
		c-0.246-3.276-1.302-17.035-1.218-19.203c0.077-1.988,1.038-2.011,1.605-3.055c0.568-1.047,0.708-2.029,0.751-2.584
		c0.033-0.406,0.126-0.939,0.208-1.301c0.149-0.51,0.488-1.315,1.047-1.88c1.045-1.228,1.231-1.178,2.251-2.401
		C224.647,71.903,225.071,71.551,225.328,71.271z M179.721,63.971c-0.356-0.035-0.594-0.646-0.505-1.04
		c0.226-1.021,0.896-1.754,1.323-2.801c0.477-0.955,0.959-1.726,1.243-2.363c2.205-3.155,1.411-3.54,1.208-3.69
		c-0.968-0.711-1.783,0.778-2.776,2.336c-0.357,0.556-1.08,1.181-1.629,2.177c-0.74,1.096-1.229,2.091-1.852,3.101
		c-0.46,0.674-0.873,1.35-1.473,2.12c-0.467,0.599-1.198,1.432-1.677,1.657c0.162-2.534,0.265-4.521,0.265-5.474
		c0-2.899,0.13-3.359,2.614-5.223c2.484-1.865,2.152-2.75,3.905-4.612c0.799-0.851,1.183-1.457,1.509-2.053
		c0.029,0.089,0.063,0.181,0.09,0.269c0.433,1.437,0.379,2.195,1.37,4.068c1.236,2.344,0.703,3.095,2.644,5.672
		c0.24,0.319,0.445,0.622,0.621,0.911c-0.399,0.288-0.808,0.614-1.204,0.863c-0.316,0.199-0.938,0.554-1.152,0.697
		c-0.868,0.576-0.673,0.57-1.458,1.014C181.668,62.228,179.986,63.997,179.721,63.971z M181.188,66.1
		c1.616-1.195,2.1-1.707,2.763-2.174c0.759-0.502,1.492-1.319,2.464-2.111c0.268-0.215,0.642-0.438,1.021-0.677
		c0.184,1.019,0.019,1.901-0.199,2.806c-0.138,0.078-0.279,0.154-0.423,0.224c-0.845,0.322-1.898,0.819-2.728,1.153
		c-1.215,0.592-2.181,1.194-2.181,1.194C181.055,66.32,181.284,66.16,181.188,66.1z M184.599,69.774
		c-0.335,0.025-1.328,0.104-1.756,0.064c-0.26-0.059-0.521-0.327-0.595-0.609c0.948-0.757,2.138-1.2,2.991-1.674
		c0.669-0.37,0.892-0.451,1.598-0.912c-0.091,0.87-0.177,1.873-0.258,2.977C185.888,69.66,185.102,69.736,184.599,69.774z
		 M195.704,64.615c-0.348-0.327-0.761-0.63-1.188-0.948c-0.305-0.277-0.599-0.511-0.892-0.754c0.313-0.655,0.668-1.08,1.045-1.396
		c0.292,0.416,1.149,1.604,1.567,2.408c0.141,0.271,0.369,0.619,0.332,0.78C196.538,64.828,196.026,64.918,195.704,64.615z
		 M198.652,62.612c-0.745-0.049-1.207-1.213-1.805-2.119c-0.063-0.096-0.121-0.179-0.18-0.266c0.135-0.106,0.27-0.222,0.401-0.358
		c0.637-0.661,1.111-1.353,1.47-1.995c0.029,0.26,0.062,0.594,0.098,1.04c0.102,1.249,0.678,2.742,0.607,3.352
		C199.203,62.641,198.823,62.622,198.652,62.612z M202.695,57.905c-0.163,1.311,0.023,2.033-0.207,3.199
		c-0.156,0.782-0.332,0.634-0.794,0.898c-0.361-2.353-0.695-3.175-0.775-3.855c-0.114-0.994-0.582-2.704-0.728-3.405
		c-0.031-0.145-0.057-0.312-0.08-0.489c0.035-0.071,0.072-0.15,0.105-0.214c0.448-0.746,1.331-1.879,2.464-2.499
		c0.132-0.087,0.239-0.152,0.359-0.227c-0.53,0.829-0.271,2.918-0.225,3.753C202.822,55.807,202.646,56.941,202.695,57.905z"/>
	<path opacity="0.3" fill="#3764A7" d="M411.429,62.811c0.411-0.671,0.982-1.373,1.402-2.069c0.222-0.301,0.5-0.438,0.706-0.807
		c0.585-1.043,0.854-1.4,1.071-1.63c1.143-0.983,1.287-1.479,1.272-1.601c-0.069-0.576-0.586-0.717-0.822-0.751
		c-1.461-0.216-2.975,1.306-3.76,2.369c-0.524,0.71-1.22,1.602-2.117,2.195c-0.353,0.112-1.01,0.327-1.367,0.18
		c-0.942-0.385-1.375-1.819-1.648-3.349c-0.088-0.496-0.076-1.054-0.115-1.597c-0.262-1.964-0.082-4.029-0.131-5.805
		c-0.039-1.322-0.174-1.809-0.357-3.458c-0.135-1.219,0.195-4.556-1.318-4.553c-1.435,0-0.982,3.447-0.916,4.637
		c0.007,0.837-0.193,2.117-0.136,3.208c-0.184,1.483,0.025,2.297-0.236,3.615c-0.176,0.887-0.375,0.72-0.896,1.017
		c-0.409-2.66-0.786-3.588-0.876-4.356c-0.13-1.124-0.657-3.057-0.823-3.85c-0.295-1.41-0.184-4.353-1.805-4.381
		c-1.965-0.03-0.521,3.987-0.445,4.982c0.192,2.371,0.272,1.416,0.493,4.114c0.116,1.413,0.767,3.1,0.688,3.788
		c-0.049,0.424-0.479,0.404-0.671,0.392c-0.842-0.055-1.362-1.37-2.039-2.394c-0.852-1.289-1.284-1.743-2.369-3.158
		c-0.802-1.043-1.896-3.917-2.968-3.129c-0.938,0.691-0.563,1.49-0.015,2.504c0.456,0.845,1.081,1.765,1.512,2.435
		c0.638,1,0.62,1.406,1.307,2.403c0.245,0.355,1.335,1.847,1.844,2.824c0.158,0.306,0.415,0.698,0.373,0.882
		c-0.033,0.137-0.612,0.239-0.976-0.104c-0.394-0.37-0.86-0.71-1.342-1.07c-0.601-0.55-1.17-0.94-1.753-1.517
		c-0.745-0.74-0.747-0.832-1.267-1.327c-0.363-4.896-0.626-8.382-0.503-8.753c0.105-0.582,1.783-2.413,2.031-2.918
		c1.368-2.375,1.977-4.845,3.056-7.063c0.489-0.74,1.386-1.81,2.146-2.484c1.248-1.115,2.552-1.83,3.535-2.521
		c1.312-0.61,2.401-1.586,3.729-2.384c1.944-1.169,5.052-3.313,4.261-4.932c-1.14-2.34-4.807,1.27-5.791,1.724
		c-1.152,0.528-2.45,1.185-3.285,1.585c-0.556,0.266-2.201,1.061-2.952,1.28c-0.469,0.073-1.048-0.209-1.316-0.638
		c1.221-1.917,3.014-3.471,4.217-4.837c1.273-1.446,1.441-1.459,3.512-4.326c1.316-1.824,4.893-4.76,2.895-6.614
		c-1.764-1.637-3.061,1.674-5.469,4.137c-1.269,1.113-2.802,2.657-4.037,3.778c-1.765,1.817-3.094,3.483-3.094,3.483
		c-1.542,0.235-1.237-0.189-1.429-0.229c2.13-3.104,2.692-4.297,3.576-5.532c1.031-1.359,1.857-3.233,3.106-5.226
		c1.219-1.922,4.613-4.868,2.446-6.618c-1.968-1.591-3.485,1.907-5.167,4.027c-0.438,0.549-1.313,1.569-1.601,1.953
		c-1.178,1.559-0.849,1.42-1.955,2.692c-1.571,1.811-3.521,5.937-3.986,6.069c-0.622,0.177-1.339-0.698-1.393-1.43
		c-0.137-1.88,0.624-3.573,0.812-5.637c0.315-1.933,0.744-3.57,0.901-4.839c2.126-6.828,0.58-6.953,0.156-7.071
		c-2.006-0.56-2.628,2.513-3.517,5.818c-0.317,1.181-1.227,2.727-1.648,4.784c-0.692,2.353-1.015,4.372-1.555,6.498
		c-0.434,1.449-0.792,2.867-1.414,4.578c-0.578,1.589-1.621,3.995-2.379,4.21c-1.364,0.387-1.953-1.785-1.967-1.826
		c-0.458-1.293-0.931-2.704-1.522-4.017c-0.772-2.732-1.725-3.316-2.716-4.324c-0.784-0.827-2.292-1.646-3.158-0.885
		c-0.776,0.681,0.369,2.102,0.981,3.249c0.413,0.778,0.694,1.389,0.922,2.248c0.318,1.201,0.699,2.407,0.932,3.466
		c0.396,1.814,0.604,2.598,0.858,3.929c0.284,1.497,0.147,1.41,0.509,2.884c0.254,1.03,1.289,3.521,1.885,5.766
		c-0.607,1.028-0.616,2.932-0.842,4.009c-0.179,0.855-0.746,2.935-0.888,4.146c-0.097,0.828-0.503,1.829-0.941,4.69
		c-0.562-0.32-0.776-0.14-0.966-1.093c-0.281-1.42-0.055-2.297-0.253-3.894c0.062-1.173-0.155-2.554-0.146-3.453
		c0.071-1.282,0.558-4.993-0.987-4.996c-1.63-0.001-1.273,3.592-1.419,4.904c-0.197,1.774-0.344,2.299-0.385,3.723
		c-0.053,1.914,0.141,4.136-0.141,6.253c-0.042,0.583-0.03,1.182-0.124,1.718c-0.295,1.646-0.762,3.189-1.775,3.605
		c-0.385,0.158-1.093-0.076-1.472-0.195c-0.969-0.634-1.715-1.597-2.28-2.361c-0.498-0.673-1.271-1.51-2.139-2.044
		c0.351-0.366,0.698-0.752,0.988-1.285c0.996-1.831,1.241-3.587,1.317-4.556c0.057-0.715,0.221-1.665,0.365-2.3
		c0.26-0.891,0.854-2.311,1.834-3.299c1.832-2.148,2.158-2.066,3.949-4.22c0.317-0.384,1.062-1.006,1.512-1.497
		c0.983-1.325,1.721-2.241,1.009-3.14c-0.743-0.941-1.349-0.239-2.121,0.457c-1.127,1.016-0.909,0.96-2.009,2.049
		c-0.723,0.716-1.426,1.199-2.171,1.88c-0.596,0.446-1.176,0.87-1.663,1.328c-0.45,0.421-1.167,0.3-1.208,0.13
		c-0.054-0.231,0.268-0.718,0.464-1.099c0.629-1.209,1.977-3.058,2.281-3.496c0.853-1.235,0.829-1.739,1.621-2.976
		c0.531-0.833,1.308-1.972,1.873-3.02c0.68-1.256,1.144-2.246-0.02-3.1c-1.326-0.978-2.685,2.583-3.676,3.877
		c-1.346,1.751-1.881,2.314-2.938,3.912c-0.837,1.268-1.482,2.896-2.525,2.966c-0.239,0.016-0.77,0.039-0.831-0.486
		c-0.098-0.853,0.708-2.945,0.853-4.695c0.273-3.344,0.372-2.158,0.608-5.096c0.096-1.233,1.885-6.214-0.55-6.173
		c-2.01,0.034-1.87,3.682-2.236,5.428c-0.204,0.981-0.858,3.378-1.021,4.769c-0.111,0.953-0.577,2.105-1.084,5.398
		c-0.646-0.367-0.893-0.162-1.11-1.258c-0.324-1.635-0.064-2.641-0.293-4.478c0.072-1.352-0.178-2.939-0.168-3.975
		c0.082-1.477,0.642-5.747-1.136-5.75c-1.877,0-1.467,4.132-1.633,5.645c-0.227,2.042-0.395,2.645-0.441,4.283
		c-0.063,2.202,0.16,4.758-0.163,7.194c-0.049,0.671-0.033,1.361-0.145,1.979c-0.338,1.892-0.874,3.668-2.041,4.15
		c-0.444,0.18-1.257-0.089-1.693-0.225c-1.113-0.733-1.974-1.839-2.624-2.72c-0.153-0.206-0.334-0.428-0.528-0.652
		c0.02-0.707,0.075-1.476,0.108-2.25c0.028-0.657,0.133-1.148,0.307-1.785c0.258-0.94,0.851-2.181,0.193-2.509
		c-0.734-0.365-1.681,0.521-2.109,1.267c-0.506,0.847-1.04,1.445-1.219,3.179c-0.463-0.175-0.939-0.256-1.412-0.186
		c-0.29,0.041-0.932,0.217-1.016,0.932c-0.02,0.151,0.16,0.763,1.575,1.983c0.113,0.12,0.24,0.273,0.401,0.503
		c-0.015,0.125-0.032,0.257-0.047,0.381c-0.004,0.031-0.086,1.697-1.116,1.697c-0.572,0-1.688-1.501-2.348-2.513
		c-0.709-1.091-1.183-2.027-1.717-2.972c-0.716-1.402-1.259-2.771-2.117-4.308c-0.619-1.376-1.506-2.289-1.916-3.067
		c-1.146-2.17-2.065-4.231-3.405-3.426c-0.284,0.169-1.365,0.57,1.211,4.997c0.31,0.871,0.867,1.949,1.393,3.26
		c0.455,1.43,1.26,2.482,1.453,3.846c0.077,0.53-0.296,1.299-0.768,1.299c-0.352,0-2.38-2.54-3.777-3.509
		c-0.985-0.685-0.73-0.65-1.809-1.522c-0.268-0.214-1.048-0.762-1.444-1.063c-1.525-1.168-3.149-3.35-4.302-1.82
		c-1.269,1.682,1.604,3.091,2.77,4.212c1.196,1.165,2.076,2.332,3.021,3.087c0.821,0.702,1.406,1.436,3.405,3.213
		c-0.132,0.066,0.151,0.307-0.981,0.45c0,0-1.205-0.916-2.742-1.851c-1.053-0.546-2.385-1.335-3.459-1.87
		c-1.787-1.079-3.095-2.75-4.062-2.28c-0.038-0.07-0.07-0.142-0.126-0.212c-0.761-0.963-1.382-0.245-2.172,0.468
		c-1.153,1.041-0.931,0.982-2.057,2.099c-0.738,0.732-1.461,1.226-2.222,1.923c-0.611,0.456-1.203,0.891-1.703,1.358
		c-0.46,0.432-1.194,0.308-1.235,0.133c-0.055-0.235,0.273-0.732,0.474-1.123c0.645-1.238,2.025-3.13,2.336-3.58
		c0.872-1.264,0.851-1.78,1.659-3.045c0.545-0.853,1.34-2.02,1.917-3.092c0.696-1.286,1.171-2.297-0.02-3.174
		c-1.358-1.001-2.747,2.646-3.764,3.969c-1.377,1.794-1.925,2.37-3.006,4.005c-0.857,1.299-1.517,2.966-2.586,3.037
		c-0.246,0.016-0.787,0.039-0.849-0.496c-0.102-0.876,0.724-3.017,0.871-4.807c0.28-3.422,0.382-2.209,0.624-5.218
		c0.097-1.264,1.929-6.361-0.564-6.32c-2.057,0.035-1.914,3.768-2.289,5.557c-0.21,1.005-0.88,3.457-1.046,4.884
		c-0.112,0.974-0.59,2.152-1.108,5.523c-0.663-0.375-0.913-0.164-1.136-1.286c-0.333-1.673-0.065-2.706-0.3-4.585
		c0.073-1.384-0.184-3.01-0.172-4.069c0.082-1.509,0.656-5.884-1.163-5.884c-1.92-0.001-1.502,4.23-1.672,5.778
		c-0.231,2.091-0.405,2.706-0.452,4.382c-0.064,2.257,0.165,4.873-0.168,7.368c-0.05,0.686-0.035,1.395-0.146,2.024
		c-0.347,1.937-0.896,3.757-2.091,4.247c-0.454,0.188-1.287-0.089-1.733-0.228c-1.141-0.75-2.02-1.884-2.688-2.786
		c-0.996-1.345-2.913-3.278-4.77-3.005c-0.297,0.045-0.953,0.225-1.042,0.957c-0.019,0.153,0.165,0.781,1.614,2.028
		c0.275,0.292,0.616,0.747,1.357,2.067c0.264,0.47,0.615,0.641,0.898,1.027c0.41,0.679,0.932,1.365,1.391,2.034
		c-0.222,0.5-0.395,1.139-0.454,2.14c-0.203,0.991-0.313,2.021-0.428,2.973c-0.004,0.03-0.081,1.593-1.048,1.593
		c-0.539,0-1.587-1.411-2.206-2.361c-0.665-1.024-1.11-1.903-1.611-2.789c-0.673-1.317-1.183-2.606-1.989-4.049
		c-0.288-0.64-0.637-1.172-0.963-1.637c1.104-1.332,1.334-2.165,2.111-3.43c0.581-0.949,1.385-1.939,1.978-2.919
		c0.313-0.426,0.705-0.62,0.998-1.14c0.823-1.468,1.203-1.975,1.509-2.3c1.61-1.386,1.814-2.084,1.794-2.256
		c-0.098-0.812-0.826-1.011-1.157-1.06c-2.064-0.306-4.196,1.843-5.305,3.341c-0.741,1-1.719,2.262-2.987,3.095
		c-0.496,0.157-1.422,0.462-1.926,0.253c-1.328-0.544-1.939-2.568-2.325-4.722c-0.123-0.7-0.107-1.487-0.162-2.25
		c-0.369-2.774-0.115-5.684-0.186-8.188c-0.053-1.866-0.244-2.552-0.502-4.876c-0.19-1.721,0.273-6.424-1.861-6.423
		c-2.021,0.002-1.385,4.864-1.291,6.542c0.01,1.178-0.274,2.984-0.192,4.525c-0.259,2.087,0.037,3.237-0.333,5.097
		c-0.247,1.248-0.527,1.013-1.263,1.431c-0.577-3.75-1.107-5.058-1.234-6.141c-0.184-1.586-0.927-4.313-1.162-5.43
		c-0.416-1.989-0.258-6.14-2.545-6.177c-2.771-0.047-0.733,5.621-0.627,7.025c0.271,3.343,0.383,1.997,0.695,5.8
		c0.162,1.99,1.08,4.372,0.969,5.343c-0.069,0.597-0.673,0.57-0.945,0.552c-1.188-0.078-1.922-1.933-2.874-3.375
		c-1.203-1.818-1.813-2.457-3.344-4.453c-1.1-1.435-2.595-5.309-4.07-4.473c-1.473-0.836-2.97,3.038-4.07,4.473
		c-1.531,1.996-2.141,2.635-3.342,4.453c-0.953,1.442-1.688,3.297-2.875,3.375c-0.271,0.019-0.875,0.045-0.944-0.552
		c-0.111-0.972,0.806-3.354,0.969-5.343c0.31-3.803,0.423-2.458,0.694-5.8c0.106-1.405,2.144-7.072-0.628-7.025
		c-2.285,0.037-2.127,4.188-2.543,6.177c-0.234,1.117-0.978,3.843-1.163,5.43c-0.126,1.083-0.657,2.392-1.233,6.141
		c-0.736-0.418-1.017-0.183-1.265-1.431c-0.369-1.86-0.074-3.01-0.333-5.097c0.081-1.541-0.204-3.347-0.191-4.525
		c0.092-1.678,0.729-6.54-1.293-6.542c-2.134-0.001-1.668,4.702-1.859,6.423c-0.257,2.324-0.451,3.01-0.503,4.876
		c-0.07,2.504,0.185,5.414-0.185,8.188c-0.057,0.763-0.037,1.55-0.162,2.25c-0.386,2.154-0.995,4.178-2.324,4.722
		c-0.505,0.209-1.432-0.096-1.93-0.253c-1.266-0.833-2.245-2.095-2.985-3.095c-1.108-1.499-3.241-3.647-5.305-3.341
		c-0.332,0.049-1.06,0.248-1.156,1.06c-0.021,0.172,0.183,0.87,1.794,2.256c0.307,0.325,0.685,0.832,1.508,2.3
		c0.293,0.521,0.685,0.714,0.997,1.14c0.593,0.979,1.397,1.97,1.979,2.919c0.903,1.471,1.059,2.354,2.72,4.119
		c2.024,2.15,1.711,3.206,4.421,5.303c-0.021,0.167-0.039,0.341-0.051,0.537c-0.182,0.886-0.28,1.811-0.384,2.664
		c-0.004,0.027-0.072,1.428-0.938,1.428c-0.483,0-1.421-1.263-1.975-2.113c-0.597-0.92-0.996-1.708-1.444-2.501
		c-0.603-1.181-1.062-2.334-1.782-3.625c-0.522-1.158-1.268-1.93-1.613-2.583c-0.966-1.825-1.738-3.559-2.866-2.884
		c-0.24,0.145-1.148,0.48,1.019,4.206c0.26,0.734,0.729,1.641,1.173,2.745c0.382,1.205,1.059,2.087,1.223,3.236
		c0.064,0.445-0.251,1.092-0.646,1.092c-0.296,0-2.003-2.137-3.182-2.952c-0.828-0.574-0.613-0.548-1.52-1.282
		c-0.224-0.18-0.882-0.639-1.215-0.895c-1.284-0.981-2.65-2.817-3.62-1.529c-1.068,1.416,1.349,2.602,2.331,3.544
		c1.007,0.98,1.748,1.961,2.544,2.6c0.691,0.588,1.183,1.207,2.864,2.703c-0.111,0.055,0.127,0.257-0.825,0.379
		c0,0-1.016-0.771-2.308-1.559c-0.887-0.459-2.006-1.123-2.913-1.573c-1.761-1.063-2.971-2.825-3.812-1.546
		c-0.955,1.45,1.57,2.6,2.596,3.469c1.615,1.363,1.718,1.341,2.669,1.989c0.899,0.614,2.175,1.238,3.157,2.179
		c-0.105,0.301-0.414,0.569-0.706,0.604c-0.476-0.004-1.566-0.2-1.933-0.263c-0.553-0.097-1.416-0.269-2.173-0.39
		c-0.649-0.104-3.317-1.64-3.693-0.045c-0.261,1.106,1.879,1.858,3.196,2.227c0.898,0.251,1.68,0.653,2.544,0.793
		c0.678,0.248,1.551,0.454,2.446,0.907c0.543,0.276,1.22,0.761,1.608,1.121c0.937,1.145,1.979,2.419,3.108,3.61
		c0.214,0.257,1.548,1.043,1.686,1.373c0.32,0.524-0.519,16.014-1.793,26.519c-0.507,4.176-0.063,7.155-0.647,27.155
		c0.378,0,6.814,0,7.687,0c1.462-36-0.731-50.33-0.756-55.109c-0.005-1.079,2.949-2.791,2.895-5.241
		c-0.035-1.56,0.365-3.672,0.384-4.443c0.024-0.944-0.047-0.853-0.072-1.796c-0.021-0.838,0-1.334,0-2.489
		c0-0.103,0.01-0.219,0.012-0.328c0.955,1.088,1.028,2.093,1.028,4.412c0,4.929-0.404,22.518-0.404,27.247
		c0,7.876,0.859,24.748,1.883,37.748c4.965,0,6.704,0,8.983,0c-0.163-19-0.723-32.287-1.053-38.492
		c-0.12-2.263-0.352-4.85-0.629-7.625c0.061,0.336,0.114,0.734,0.139,1.038c0.05,0.638,0.21,1.8,0.864,3.001
		c0.65,1.2,2.191,1.614,2.281,3.9c0.096,2.485,2.402,19.013,2.742,22.767c0.083,0.917,1.193,12.411,2.099,15.411
		c0.056,0,0.115,0,0.171,0c1.102,0,2.268,0,4.668,0c0.289,0,0.589,0,0.91,0c-0.111-1-0.243-2.768-0.384-4.142
		c0.544-4.423,1.295-10.688,1.395-13.319c0.123-3.291,0.937-14.436,0.937-16.816c0-1.661,0.075-1.906,1.498-2.974
		c0.41-0.308,0.678-0.56,0.887-0.801c-0.314,3.969-0.566,7.157-0.656,8.937c-0.096,1.887-1.349,25.115-1.021,29.115
		c2.28,0,5.15,0,10.115,0c0.626-7,1.067-32.201,1.067-40.074c0-3.593-0.392-13.262-0.578-19.901
		c0.194,0.054,0.388,0.138,0.589,0.171c0.757,0.274,1.732,0.524,2.729,1.028c0.607,0.307,1.364,0.861,1.797,1.261
		c1.045,1.276,2.209,2.704,3.471,4.031c0.238,0.287,1.727,1.168,1.882,1.538c0.102,0.167-0.168,1.685-0.632,3.957
		c-0.214-0.036-0.432-0.102-0.58-0.147c-0.679-0.446-1.204-1.123-1.6-1.658c-0.594-0.802-1.735-1.952-2.84-1.79
		c-0.178,0.027-0.567,0.135-0.621,0.57c-0.011,0.089,0.099,0.464,0.961,1.206c0.164,0.175,0.367,0.444,0.81,1.231
		c0.156,0.277,0.365,0.383,0.533,0.611c0.315,0.523,0.749,1.055,1.058,1.563c0.484,0.79,0.569,1.259,1.457,2.205
		c0.008,0.009,0.014,0.016,0.021,0.025c-1.215,5.71-2.854,13.14-3.531,17.96c-0.5,3.557-2.854,20.212-3.619,26.212
		c0.42,0,6.694,0,8.362,0c1.613-7,2.726-18.996,3.429-29.637c0.369,4.829,0.824,10.105,0.998,11.9
		c0.403,4.191,1.036,13.736,1.74,17.736c2.66,0,4.373,0,5.594,0c-0.269-6-1.077-14.411-1.803-18.81
		c-0.569-3.451-3.501-18.052-3.41-20.366c0.082-2.127,1.108-2.151,1.717-3.27c0.605-1.116,0.756-2.168,0.802-2.761
		c0.034-0.436,0.135-1.005,0.222-1.391c0.159-0.544,0.522-1.408,1.119-2.01c1.116-1.308,1.314-1.255,2.405-2.565
		c0.195-0.235,0.646-0.614,0.922-0.913c0.6-0.809,1.049-1.366,0.616-1.913c-0.453-0.574-0.823-0.145-1.292,0.277
		c-0.688,0.621-0.556,0.588-1.226,1.248c-0.44,0.44-0.87,0.732-1.324,1.146c-0.363,0.273-0.716,0.529-1.012,0.811
		c-0.275,0.259-0.712,0.182-0.737,0.077c-0.032-0.138,0.162-0.436,0.283-0.665c0.383-0.739,1.205-1.865,1.39-2.135
		c0.519-0.751,0.506-1.058,0.989-1.812c0.323-0.509,0.796-1.202,1.141-1.84c0.413-0.766,0.697-1.37-0.012-1.891
		c-0.81-0.595-1.637,1.575-2.241,2.362c-0.819,1.069-1.146,1.412-1.789,2.387c-0.512,0.771-0.903,1.765-1.541,1.806
		c-0.145,0.008-0.468,0.025-0.505-0.297c-0.06-0.519,0.432-1.795,0.519-2.861c0.018-0.213,0.033-0.388,0.049-0.545
		c0.788-1.105,1.443-2.291,1.418-3.392c-0.037-1.742,0.409-4.136,0.432-4.997c0.025-1.054-0.055-0.971-0.081-2.025
		c-0.025-0.936,0-1.498,0-2.789c0-0.178,0.013-0.38,0.02-0.571c0.196,0.247,0.413,0.505,0.688,0.796
		c1.867,1.982,1.514,2.928,4.159,4.913c2.647,1.988,2.786,2.477,2.786,5.564c0,4.435-1.168,25.898-1.168,30.152
		c0,7.083,0.81,19.276,1.518,28.276c4.467,0,7.047,0,9.1,0c0.238-11-0.853-25.4-0.948-28.419c-0.188-5.896-2.527-28.12-2.376-32.007
		c0.139-3.571,1.863-3.638,2.883-5.514c0.326-0.603,0.567-1.175,0.757-1.736c0.002,0.419,0.228,0.889,0.51,1.414
		c0.427,0.787,1.01,1.648,1.41,2.273c0.596,0.933,0.579,1.313,1.221,2.243c0.228,0.332,1.243,1.722,1.717,2.634
		c0.148,0.284,0.388,0.652,0.347,0.825c-0.029,0.127-0.569,0.221-0.908-0.098c-0.367-0.345-0.803-0.664-1.251-0.997
		c-0.561-0.516-1.09-0.875-1.634-1.416c-0.827-0.819-0.663-0.778-1.513-1.542c-0.579-0.523-1.036-1.052-1.595-0.343
		c-0.536,0.675,0.019,1.364,0.759,2.363c0.34,0.37,0.899,0.837,1.14,1.125c1.346,1.619,1.592,1.56,2.97,3.176
		c0.737,0.744,1.184,1.814,1.381,2.483c0.109,0.479,0.232,1.192,0.273,1.732c0.057,0.729,0.243,2.046,0.992,3.427
		c0.75,1.378,2.018,1.453,2.12,4.079c0.109,2.858-1.441,18.125-1.731,22.45c-0.148,2.195-0.743,9.848-0.714,21.848
		c1.509,0,3.404,0,6.688,0c0.251-7,0.843-14.407,1.027-19.35c0.117-3.124-0.77-20.34-0.77-23.598c0-2.268,0.102-2.594,2.047-4.055
		c1.946-1.461,1.688-2.137,3.059-3.597c1.099-1.165,1.202-1.742,1.799-2.716c0.385-0.626,0.915-1.278,1.308-1.925
		c0.208-0.282,0.466-0.408,0.658-0.751c0.546-0.971,0.797-1.304,1-1.521c1.064-0.917,1.199-1.375,1.187-1.49
		c-0.065-0.536-0.547-0.668-0.767-0.701c-1.364-0.204-2.772,1.218-3.506,2.207c-0.49,0.665-1.138,1.497-1.976,2.048
		c-0.329,0.104-0.939,0.306-1.274,0.169c-0.879-0.361-1.281-1.698-1.536-3.123c-0.082-0.464-0.072-0.981-0.109-1.489
		c-0.242-1.831-0.074-3.756-0.121-5.414c-0.035-1.233-0.162-1.687-0.332-3.221c-0.126-1.138,0.182-4.248-1.229-4.246
		c-1.338,0-0.917,3.215-0.857,4.325c0.009,0.778-0.179,1.97-0.126,2.99c-0.17,1.381,0.025,2.142-0.219,3.369
		c-0.164,0.828-0.35,0.671-0.835,0.95c-0.381-2.48-0.731-3.347-0.815-4.063c-0.123-1.047-0.615-2.851-0.771-3.589
		c-0.273-1.313-0.17-4.06-1.683-4.085c-1.832-0.031-0.485,3.716-0.413,4.646c0.179,2.21,0.253,1.319,0.459,3.836
		c0.108,1.315,0.714,2.89,0.639,3.531c-0.044,0.396-0.442,0.379-0.624,0.365c-0.784-0.051-1.271-1.276-1.9-2.23
		c-0.794-1.203-1.196-1.626-2.209-2.946c-0.747-0.973-1.768-3.653-2.768-2.918c-0.157,0.117-0.264,0.238-0.348,0.362
		c0.266-0.951,0.372-1.779,0.415-2.343c0.059-0.733,0.227-1.704,0.372-2.352c0.267-0.913,0.877-2.369,1.878-3.379
		c1.877-2.199,2.211-2.116,4.043-4.322c0.325-0.393,1.087-1.029,1.547-1.533c0.261-0.35,0.501-0.671,0.707-0.972
		c0.636,1,2.251,1.844,3.068,2.532c1.92,1.621,2.041,1.597,3.171,2.37c1.068,0.727,2.584,1.468,3.752,2.586
		c-0.126,0.361-0.492,0.677-0.839,0.718c-0.568-0.003-1.862-0.237-2.299-0.313c-0.655-0.115-1.68-0.319-2.583-0.462
		c-0.769-0.123-3.939-1.946-4.387-0.054c-0.31,1.313,2.233,2.208,3.797,2.645c1.068,0.299,1.996,0.772,3.024,0.943
		c0.806,0.293,1.844,0.538,2.907,1.077c0.644,0.327,1.449,0.904,1.911,1.334c1.113,1.359,2.353,2.874,3.694,4.286
		c0.136,0.164,0.649,0.508,1.126,0.852c-0.451-0.235-0.829-0.238-1.149,0.249c-0.734,1.117,0.813,2.035,1.859,2.767
		c-0.113,0.93-0.273,2.107-0.466,3.472c-0.679-0.149-1.307-0.104-1.468,0.578c-0.135,0.572,0.445,1.033,1.185,1.392
		c-1.207,8.307-3.201,20.965-3.672,26.528c-0.837,9.869-0.837,20.629-1.536,29.629c0.448,0,7.955,0,8.991,0
		c1.202-10,2.278-38.313,2.08-54.293c0.117,0.052,0.231,0.164,0.35,0.225c0.491,0.248,1.104,0.724,1.456,1.049
		c0.845,1.034,1.787,2.203,2.809,3.278c0.193,0.232,1.398,0.95,1.523,1.25c0.287,0.473-0.499,17.297-0.105,26.314
		c0.203,4.641-0.152,6.177,0.504,22.177c0.341,0,6.589,0,7.378,0c-0.177-19-3.141-44.174-3.79-49.427
		c-0.121-0.966,2.736-2.882,2.687-5.099c-0.032-1.406,0.331-3.312,0.35-4.01c0.021-0.854-0.045-0.768-0.066-1.621
		c-0.02-0.761,0-1.208,0-2.252c0-0.608,0.063-1.317,0.094-2.013c0.015-0.339,0.064-0.625,0.131-0.922
		c0.233,0.696,0.279,1.537,0.437,2.88c0.576,4.896,2.158,22.337,3.408,34.186c0.727,6.87,2.207,17.278,3.895,28.278
		c4.363,0,6.18,0,8.184,0c-0.156-3-2.6-23.203-4.08-32.336c-2.244-13.807-5.57-28.281-5.424-32.08
		c0.035-0.911,0.179-1.552,0.385-2.094c0.006,0.006,0.011,0.029,0.017,0.034c0.234,0.25,0.524,0.643,1.153,1.765
		c0.224,0.396,0.523,0.549,0.761,0.874c0.453,0.748,1.067,1.507,1.512,2.232c0.689,1.123,0.808,1.796,2.077,3.145
		c1.584,1.684,1.285,2.488,3.532,4.173c2.246,1.688,2.363,2.105,2.363,4.726c0,3.763-0.751,21.439-0.751,25.05
		c0,6.013,0.387,15.513,1.048,24.513c3.793,0,5.984,0,7.725,0c0.045-9-0.771-22.995-0.857-24.218
		c-0.414-5.853-2.091-23.751-1.964-27.052c0.118-3.033,1.58-3.083,2.447-4.675c0.865-1.595,1.08-3.102,1.146-3.944
		c0.047-0.624,0.189-1.44,0.314-1.991c0.228-0.774,0.745-2.007,1.596-2.864c0.483-0.567,0.841-1.081,1.155-1.398
		C382.073,63.431,380.284,81,381.99,120c1.479,0,8.762,0,10.037,0c0.953-13,0.197-33.048,0.25-39.245
		c0.061-7.052-0.558-16.495-1.101-24.002c1.196,1.395,1.534,1.502,2.907,3.114c0.791,0.798,1.271,1.963,1.481,2.683
		c0.115,0.514,0.25,1.284,0.293,1.861c0.062,0.785,0.261,2.202,1.063,3.683c0.806,1.479,2.165,1.562,2.273,4.379
		c0.12,3.065-1.583,22.288-1.897,26.923C397.13,101.87,396.39,112,396.871,120c1.617,0,4.097,0,7.616,0
		c-0.093-7,0.658-15.178,0.658-20.761c0-3.354-1.123-21.817-1.123-25.315c0-2.432,0.11-2.784,2.197-4.352
		c2.086-1.564,1.808-2.291,3.28-3.857C410.677,64.463,410.788,63.857,411.429,62.811z M259.867,30.456
		c0.225,0.432,0.588,0.988,0.527,1.248c-0.045,0.193-0.862,0.333-1.375-0.148c-0.555-0.521-1.214-1.002-1.893-1.51
		c-0.516-0.472-1.014-0.864-1.51-1.279c0.045-0.046,0.098-0.096,0.139-0.141c0.674-0.908,1.238-1.644,1.411-2.311
		c0.036,0.054,0.064,0.103,0.104,0.16C257.616,26.976,259.153,29.079,259.867,30.456z M253.43,19.889
		c0.628,1.125,1.431,2.313,1.996,3.2c0.384,0.601,0.599,1.047,0.795,1.473c-0.565-0.121-1.099,0.441-1.731,1.01
		c-0.564,0.509-0.83,0.78-1.06,1.032c-0.23-0.252-0.497-0.523-1.062-1.032c-0.631-0.568-1.165-1.13-1.729-1.01
		c0.195-0.426,0.41-0.873,0.793-1.473C251.999,22.202,252.801,21.014,253.43,19.889z M246.992,30.456
		c0.715-1.377,2.251-3.48,2.597-3.982c0.04-0.058,0.068-0.106,0.104-0.161c0.171,0.667,0.736,1.404,1.411,2.312
		c0.041,0.045,0.093,0.094,0.138,0.142c-0.497,0.415-0.995,0.807-1.51,1.278c-0.679,0.508-1.339,0.989-1.893,1.51
		c-0.513,0.481-1.331,0.341-1.376,0.148C246.404,31.444,246.768,30.888,246.992,30.456z M243.979,69.229
		c-0.059-0.056-0.129-0.108-0.192-0.162c-0.069-0.636-0.14-1.269-0.209-1.896c0.314,0.457,0.67,1,0.891,1.427
		c0.128,0.249,0.338,0.567,0.303,0.719C244.745,69.427,244.274,69.506,243.979,69.229z M251.678,82.018
		c-0.235-1.163-0.525-1.583,1.17-2.853c0.769-0.578,1.136-1.017,1.426-1.443c0.029,0.082,0.063,0.171,0.084,0.242
		c0.079,0.352,0.168,0.871,0.199,1.265c0.043,0.535,0.18,1.5,0.726,2.507c0.548,1.009,1.475,1.063,1.551,2.982
		c0.054,1.402-1.08,7.732-1.925,12.694C253.828,92.067,252.269,84.933,251.678,82.018z M258.785,72.405
		c-0.052-0.336-0.102-0.62-0.15-0.881c0.053-0.061,0.104-0.127,0.149-0.211c0.351-0.621,0.561-0.939,0.717-1.142
		c-0.006,0.512,0.012,0.957-0.104,1.541C259.277,72.315,259.141,72.202,258.785,72.405z M262.708,76.688
		c-0.642-0.263-0.937-1.24-1.123-2.281c-0.061-0.339-0.051-0.719-0.079-1.09c-0.179-1.339-0.055-2.745-0.09-3.956
		c-0.024-0.903-0.118-1.233-0.241-2.356c-0.093-0.832,0.132-3.106-0.899-3.106c-0.978,0.002-0.671,2.35-0.626,3.164
		c0.003,0.281-0.029,0.64-0.059,1.019c-0.527,0.06-1.045,0.36-1.503,0.738c-0.144-0.727-0.373-1.595-0.46-2.007
		c-0.201-0.963-0.126-2.969-1.229-2.988c-1.341-0.021-0.356,2.717-0.304,3.397c0.13,1.615,0.185,0.962,0.336,2.803
		c0.016,0.184,0.046,0.376,0.082,0.567c-0.33,0.402-0.716,0.808-1.172,1.125c-0.094-0.159-0.189-0.32-0.29-0.474
		c-0.58-0.878-0.874-1.188-1.614-2.154c-0.216-0.28-0.463-0.755-0.728-1.194c-0.208-1.588-0.065-3.251-0.105-4.684
		c-0.03-1.074-0.139-1.467-0.288-2.805c-0.11-0.992,0.157-3.697-1.07-3.697c-1.164,0.003-0.797,2.8-0.744,3.765
		c0.006,0.679-0.157,1.716-0.11,2.605c-0.148,1.2,0.022,1.862-0.19,2.931c-0.143,0.718-0.305,0.581-0.728,0.822
		c-0.332-2.155-0.638-2.91-0.71-3.533c-0.105-0.911-0.533-2.48-0.668-3.123c-0.24-1.145-0.148-3.532-1.464-3.554
		c-1.595-0.027-0.421,3.234-0.361,4.042c0.155,1.923,0.22,1.148,0.4,3.339c0.094,1.145,0.623,2.515,0.556,3.075
		c-0.038,0.343-0.386,0.324-0.542,0.314c-0.683-0.045-1.158-1.112-1.708-1.941c-0.692-1.047-0.975-1.412-1.975-2.563
		c0,0,0-0.001,0-0.002c0-4.434-0.792-8.207-0.722-10.025c0.156-3.97,2.099-4.083,3.232-6.169c1.134-2.085,1.427-4.079,1.515-5.184
		c0.063-0.815,0.255-1.895,0.419-2.618c0.297-1.011,0.979-2.632,2.093-3.756c1.858-2.18,2.36-2.346,3.89-4.095
		c1.529,1.75,2.031,1.916,3.891,4.095c1.114,1.125,1.793,2.745,2.09,3.756c0.163,0.723,0.35,1.803,0.412,2.618
		c0.088,1.105,0.368,3.098,1.502,5.184c1.133,2.086,3.051,2.199,3.205,6.169c0.104,2.659-0.806,13.999-1.599,23.861
		C262.847,76.723,262.771,76.714,262.708,76.688z M274.325,57.637c-0.534-0.001-1.749-0.22-2.159-0.293
		c-0.227-0.039-0.507-0.092-0.802-0.146c-0.018-0.855-0.027-1.599-0.027-2.19c0-0.227,0.001-0.439,0.003-0.642
		c0.079,0.053,0.157,0.104,0.249,0.167c1.003,0.684,2.427,1.38,3.523,2.43C274.994,57.301,274.649,57.599,274.325,57.637z
		 M275.793,53.662c0,0-1.132-0.861-2.575-1.74c-0.402-0.208-0.849-0.457-1.303-0.708c0.264-0.448,0.649-0.87,1.208-1.353
		c0.132,0.122,0.263,0.252,0.395,0.359c0.77,0.657,1.319,1.348,3.197,3.017C276.591,53.298,276.858,53.524,275.793,53.662z
		 M278.722,50.796c-0.295,0-1.847-1.9-3.112-2.956c1.094-1.025,1.493-1.825,2.099-2.756c0.122,0.28,0.248,0.573,0.371,0.881
		c0.427,1.344,1.181,2.33,1.364,3.612C279.516,50.073,279.162,50.796,278.722,50.796z M339.219,63.083
		c-0.016,0-0.036-0.002-0.054-0.003c-0.01-0.391-0.02-0.775-0.031-1.145c0.252,0.185,0.496,0.383,0.724,0.6
		C339.761,62.809,339.481,63.05,339.219,63.083z M340.407,59.86c0,0-0.585-0.442-1.411-0.981c-0.034-0.552-0.072-1.058-0.113-1.518
		c0.495,0.466,1.017,1.04,2.271,2.156C341.054,59.568,341.271,59.752,340.407,59.86z M342.78,57.541
		c-0.269,0-1.811-1.933-2.875-2.667c-0.22-0.153-0.354-0.256-0.46-0.347c0.561-0.75,1.355-1.658,2.061-2.627
		c0.224,0.507,0.491,1.077,0.752,1.729c0.347,1.089,0.957,1.887,1.105,2.925C343.421,56.956,343.138,57.541,342.78,57.541z
		 M350.222,56.037c-0.164,0.802-0.254,1.638-0.348,2.409c-0.003,0.023-0.065,1.29-0.849,1.29c-0.435,0-1.282-1.141-1.784-1.912
		c-0.539-0.829-0.9-1.54-1.306-2.259c-0.545-1.067-0.957-2.108-1.61-3.276c-0.471-1.046-1.147-1.742-1.457-2.334
		c-0.039-0.073-0.076-0.145-0.114-0.218c0.186-0.48,0.302-0.958,0.291-1.42c-0.039-1.736,0.37-4.058,0.442-5.106
		c0.107,0.158,0.216,0.317,0.312,0.475c0.792,1.294,0.929,2.069,2.389,3.619c1.823,1.937,1.479,2.858,4.063,4.799
		c0.452,0.339,0.815,0.634,1.115,0.907c-0.069,0.091-0.134,0.183-0.186,0.273C350.764,53.978,350.317,54.44,350.222,56.037z
		 M376.571,50.092c-0.206,0.013-0.667,0.032-0.719-0.422c-0.085-0.742,0.614-2.561,0.738-4.082c0.239-2.905,0.324-1.875,0.53-4.43
		c0.013-0.169,0.064-0.422,0.13-0.721c1.228,1.5,2.915,2.722,4.024,3.734c-1.135,1.475-1.601,1.974-2.507,3.343
		C378.041,48.615,377.479,50.032,376.571,50.092z M381.605,51.375c-0.52,0.388-1.021,0.757-1.445,1.154
		c-0.391,0.367-1.016,0.26-1.051,0.112c-0.047-0.199,0.232-0.623,0.404-0.951c0.544-1.054,1.718-2.659,1.983-3.042
		c0.591-0.858,0.702-1.313,1.072-2.009c0.151,1.098,0.202,2.322,0.185,3.764C382.377,50.719,381.997,51.017,381.605,51.375z"/>
	<path opacity="0.3" fill="#3764A7" d="M474.802,71.271c0.562-0.757,0.981-1.277,0.576-1.792c-0.424-0.535-0.77-0.137-1.21,0.26
		c-0.643,0.582-0.52,0.548-1.146,1.171c-0.412,0.406-0.813,0.685-1.239,1.071c-0.341,0.257-0.669,0.496-0.948,0.758
		c-0.257,0.238-0.666,0.171-0.688,0.072c-0.031-0.129,0.152-0.406,0.264-0.626c0.358-0.687,1.128-1.742,1.301-1.992
		c0.486-0.704,0.475-0.99,0.925-1.698c0.305-0.474,0.746-1.125,1.068-1.722c0.388-0.716,0.652-1.282-0.011-1.77
		c-0.757-0.558-1.531,1.476-2.097,2.212c-0.768,1-1.073,1.32-1.676,2.232c-0.478,0.722-0.844,1.651-1.44,1.69
		c-0.136,0.01-0.438,0.023-0.474-0.275c-0.056-0.487,0.405-1.682,0.484-2.679c0.157-1.906,0.213-1.23,0.35-2.907
		c0.055-0.703,1.075-3.544-0.314-3.521c-1.146,0.02-1.067,2.1-1.274,3.096c-0.118,0.561-0.491,1.927-0.583,2.721
		c-0.064,0.544-0.329,1.2-0.616,3.078c-0.371-0.209-0.511-0.092-0.634-0.717c-0.186-0.933-0.037-1.508-0.168-2.554
		c0.041-0.772-0.102-1.678-0.096-2.268c0.046-0.842,0.365-3.276-0.647-3.28c-1.069,0-0.836,2.358-0.933,3.219
		c-0.129,1.168-0.225,1.51-0.252,2.444c-0.035,1.256,0.093,2.714-0.092,4.103c-0.028,0.383-0.021,0.777-0.082,1.129
		c-0.193,1.078-0.499,2.093-1.165,2.367c-0.253,0.103-0.717-0.051-0.966-0.129c-0.636-0.416-1.125-1.05-1.496-1.549
		c-0.381-0.515-1.001-1.172-1.685-1.494c0.952-1.039,1.07-1.591,1.618-2.488c0.365-0.591,0.869-1.215,1.239-1.83
		c0.197-0.267,0.444-0.389,0.626-0.715c0.519-0.92,0.757-1.237,0.948-1.442c1.01-0.871,1.139-1.307,1.126-1.414
		c-0.061-0.512-0.52-0.637-0.728-0.667c-1.294-0.19-2.633,1.156-3.327,2.095c-0.464,0.63-1.079,1.422-1.875,1.942
		c-0.311,0.098-0.892,0.292-1.208,0.16c-0.833-0.34-1.215-1.609-1.458-2.962c-0.077-0.439-0.067-0.934-0.103-1.413
		c-0.23-1.737-0.072-3.564-0.115-5.137c-0.033-1.17-0.154-1.599-0.313-3.057c-0.121-1.082,0.169-4.03-1.168-4.03
		c-0.009,0-0.017,0.004-0.025,0.004c1.402-0.834,1.907-0.919,3.712-2.136c0.384-0.259,1.218-0.607,1.748-0.926
		c1.22-0.928,2.111-1.552,1.664-2.601c-0.468-1.093-1.191-0.628-2.068-0.219c-1.279,0.6-1.064,0.615-2.335,1.288
		c-0.834,0.446-1.599,0.677-2.444,1.084c-0.656,0.23-1.29,0.45-1.847,0.724c-0.515,0.255-1.15-0.077-1.147-0.245
		c0.003-0.229,0.412-0.582,0.684-0.872c0.861-0.932,2.54-2.233,2.923-2.548c1.075-0.884,1.173-1.355,2.19-2.262
		c0.686-0.608,1.669-1.43,2.436-2.226c0.919-0.958,1.578-1.731,0.702-2.875c-1.001-1.305-3.083,1.578-4.3,2.474
		c-1.654,1.214-2.279,1.572-3.627,2.733c-1.069,0.917-2.045,2.23-3.027,1.978c-0.225-0.059-0.721-0.197-0.654-0.701
		c0.107-0.819,1.339-2.51,1.878-4.082c1.03-3.012,0.848-1.886,1.75-4.533c0.374-1.112,3.187-5.176,0.926-5.876
		c-1.865-0.576-2.586,2.84-3.331,4.345c-0.417,0.846-1.58,2.863-2.055,4.103c-0.322,0.846-1.021,1.771-2.256,4.663
		c-0.511-0.536-0.787-0.418-0.734-1.499c0.08-1.61,0.556-2.464,0.771-4.23c0.379-1.229,0.518-2.772,0.768-3.729
		c0.418-1.34,1.93-5.121,0.287-5.659c-1.734-0.569-2.318,3.377-2.825,4.723c-0.683,1.823-0.979,2.328-1.402,3.831
		c-0.57,2.016-0.957,4.45-1.823,6.604c-0.202,0.606-0.349,1.25-0.593,1.788c-0.753,1.646-1.663,3.13-2.853,3.219
		c-0.454,0.033-1.144-0.46-1.517-0.718c-0.488-0.578-0.865-1.241-1.179-1.892c0.105-0.16,0.212-0.319,0.308-0.477
		c0.267-0.359,0.597-0.523,0.843-0.964c0.696-1.239,1.016-1.666,1.275-1.941c1.358-1.169,1.531-1.757,1.514-1.904
		c-0.082-0.685-0.698-0.854-0.978-0.896c-1.742-0.259-3.543,1.557-4.478,2.821c-0.014,0.019-0.031,0.04-0.045,0.06
		c-0.678-1.078-1.592-2.058-2.683-2.246c-0.28-0.047-0.913-0.08-1.159,0.556c-0.052,0.133-0.028,0.755,0.998,2.31
		c0.157,0.298,0.333,0.724,0.616,1.741c-0.084,0.061-0.16,0.134-0.248,0.191c-0.42,0.132-1.201,0.39-1.628,0.214
		c-1.121-0.459-1.636-2.168-1.962-3.986c-0.105-0.593-0.091-1.256-0.138-1.9c-0.312-2.341-0.097-4.799-0.155-6.913
		c-0.045-1.575-0.209-2.154-0.426-4.116c-0.159-1.452,0.232-5.423-1.569-5.421c-1.706,0.001-1.17,4.104-1.092,5.522
		c0.011,0.994-0.23,2.519-0.161,3.82c-0.219,1.764,0.031,2.733-0.28,4.302c-0.209,1.055-0.446,0.854-1.066,1.209
		c-0.487-3.166-0.935-4.272-1.042-5.186c-0.156-1.339-0.784-3.642-0.981-4.584c-0.352-1.678-0.219-5.183-2.148-5.215
		c-2.34-0.038-0.62,4.747-0.53,5.932c0.229,2.823,0.324,1.685,0.587,4.897c0.138,1.681,0.912,3.69,0.818,4.511
		c-0.058,0.504-0.567,0.48-0.798,0.467c-1.002-0.068-1.624-1.632-2.427-2.849c-1.016-1.538-1.529-2.076-2.821-3.76
		c-0.953-1.244-2.257-4.664-3.532-3.727c-1.116,0.823-0.672,1.773-0.02,2.981c0.544,1.005,1.289,2.102,1.801,2.9
		c0.759,1.191,0.739,1.672,1.557,2.859c0.292,0.424,1.588,2.198,2.191,3.36c0.189,0.366,0.497,0.833,0.446,1.053
		c-0.039,0.165-0.729,0.283-1.162-0.125c-0.467-0.438-1.022-0.845-1.597-1.273c-0.714-0.654-1.391-1.118-2.086-1.806
		c-1.055-1.048-0.848-0.994-1.932-1.97c-0.739-0.668-1.322-1.343-2.035-0.439c-0.685,0.865,0.023,1.743,0.969,3.017
		c0.433,0.472,1.146,1.07,1.453,1.438c1.719,2.072,2.033,1.992,3.792,4.056c0.939,0.949,1.515,2.314,1.765,3.169
		c0.139,0.613,0.296,1.522,0.349,2.21c0.073,0.931,0.31,2.617,1.267,4.378c0.956,1.76,2.576,1.855,2.707,5.207
		c0.141,3.651-4.858,26.341-5.573,31.819c-0.866,6.648-1.778,12-4.271,30c1.926,0,6.407,0,10.6,0c1.483-14,1.89-20.112,2.67-28.276
		c0.174-1.821,0.677-7.872,1.171-14.218c-0.2,5.656,1.424,31.494,3.047,42.494c1.21,0,6.925,0,7.324,0
		c-0.437-4-2.376-18.11-2.914-20.953c-1.198-6.32-4.385-21.049-4.063-21.492c0.148-0.283,1.402-0.837,1.612-1.049
		c1.098-0.97,2.125-2.005,3.044-2.95c0.375-0.29,1.019-0.658,1.525-0.857c0.836-0.328,1.636-0.433,2.262-0.594
		c0.645-0.039,1.253-0.232,1.903-0.384c-0.466,7.504-0.741,17.689-0.869,21.39c-0.229,6.652,0.271,24.89,0.484,26.89
		c4.735,0,5.826,0,8.114,0c0.158-12,0.38-19.787-0.109-29.814c-0.248-5.087-1.619-20.01-1.05-25.105
		c0.46,0.451,0.858,0.84,1.632,1.746c0.698,0.705,1.124,1.738,1.311,2.373c0.104,0.453,0.219,1.14,0.26,1.65
		c0.055,0.692,0.229,1.948,0.94,3.255c0.712,1.311,1.914,1.386,2.011,3.874c0.105,2.712,0.293,19.495,0.664,23.588
		c0.09,1.001,0.162,10.434,0.993,18.434c1.431,0,4.552,0,7.666,0c-0.328-2-1.421-14.187-2.078-19.972
		c-0.334-2.945-2.698-18.116-2.698-21.208c0-2.154-0.179-2.022,1.668-3.405c1.277-0.958,1.558-1.558,2.038-2.3
		c0.088,0.084,0.185,0.181,0.297,0.278c0.154,0.163,0.344,0.419,0.758,1.155c0.146,0.26,0.341,0.36,0.499,0.576
		c0.297,0.49,0.698,0.986,0.991,1.463c0.451,0.738,0.53,1.179,1.363,2.065c1.038,1.104,0.844,1.632,2.316,2.735
		c1.477,1.109,1.554,1.382,1.554,3.099c0,2.474-0.992,15.16-0.992,17.53c0,3.945,0.11,15.982,0.508,17.982c2.487,0,4.741,0,5.885,0
		c-0.371-3-0.59-15.014-0.771-17.451c-0.246-3.276-1.302-17.035-1.218-19.203c0.076-1.988,1.038-2.011,1.605-3.055
		c0.568-1.047,0.708-2.029,0.75-2.584c0.033-0.406,0.126-0.939,0.208-1.301c0.149-0.51,0.489-1.315,1.048-1.88
		c1.045-1.228,1.231-1.178,2.252-2.401C474.12,71.903,474.544,71.551,474.802,71.271z M429.194,63.971
		c-0.356-0.035-0.594-0.646-0.505-1.04c0.226-1.021,0.895-1.754,1.322-2.801c0.474-0.955,0.96-1.726,1.243-2.363
		c2.207-3.155,1.411-3.54,1.207-3.69c-0.967-0.711-1.782,0.778-2.776,2.336c-0.355,0.556-1.08,1.181-1.629,2.177
		c-0.738,1.096-1.229,2.091-1.854,3.101c-0.456,0.674-0.872,1.35-1.471,2.12c-0.47,0.599-1.199,1.432-1.677,1.657
		c0.161-2.533,0.264-4.521,0.264-5.474c0-2.899,0.13-3.359,2.615-5.223c2.483-1.865,2.152-2.75,3.903-4.612
		c0.801-0.852,1.185-1.458,1.511-2.054c0.029,0.09,0.063,0.182,0.09,0.27c0.433,1.437,0.379,2.195,1.369,4.068
		c1.236,2.344,0.703,3.095,2.644,5.672c0.24,0.319,0.444,0.621,0.62,0.911c-0.399,0.288-0.807,0.614-1.202,0.863
		c-0.316,0.199-0.939,0.554-1.153,0.697c-0.867,0.576-0.673,0.57-1.458,1.014C431.144,62.228,429.46,63.997,429.194,63.971z
		 M430.661,66.1c1.615-1.195,2.101-1.707,2.762-2.174c0.76-0.502,1.493-1.319,2.467-2.111c0.269-0.215,0.641-0.438,1.019-0.676
		c0.185,1.018,0.019,1.9-0.198,2.805c-0.139,0.078-0.278,0.154-0.423,0.224c-0.846,0.322-1.898,0.819-2.729,1.153
		c-1.217,0.592-2.181,1.194-2.181,1.194C430.528,66.32,430.756,66.16,430.661,66.1z M434.072,69.774
		c-0.336,0.025-1.329,0.104-1.758,0.064c-0.26-0.059-0.52-0.327-0.594-0.609c0.949-0.757,2.14-1.2,2.99-1.674
		c0.67-0.369,0.893-0.451,1.6-0.911c-0.092,0.87-0.179,1.872-0.26,2.976C435.36,69.66,434.574,69.736,434.072,69.774z
		 M445.178,64.615c-0.349-0.327-0.761-0.63-1.188-0.948c-0.304-0.277-0.599-0.511-0.892-0.755c0.313-0.654,0.668-1.079,1.045-1.395
		c0.292,0.416,1.15,1.604,1.568,2.408c0.139,0.271,0.368,0.619,0.329,0.78C446.012,64.828,445.5,64.918,445.178,64.615z
		 M448.124,62.612c-0.745-0.049-1.205-1.213-1.802-2.119c-0.063-0.096-0.122-0.18-0.181-0.267c0.135-0.106,0.269-0.221,0.4-0.357
		c0.638-0.661,1.112-1.353,1.471-1.995c0.029,0.26,0.062,0.594,0.098,1.04c0.102,1.249,0.678,2.742,0.608,3.352
		C448.674,62.641,448.296,62.622,448.124,62.612z M452.169,57.905c-0.163,1.311,0.023,2.033-0.209,3.199
		c-0.154,0.782-0.332,0.634-0.792,0.898c-0.363-2.353-0.694-3.175-0.774-3.855c-0.115-0.994-0.582-2.704-0.729-3.405
		c-0.031-0.145-0.056-0.312-0.079-0.489c0.034-0.071,0.071-0.15,0.104-0.214c0.448-0.746,1.329-1.879,2.465-2.499
		c0.133-0.086,0.237-0.151,0.357-0.226c-0.528,0.829-0.27,2.917-0.224,3.752C452.296,55.807,452.118,56.941,452.169,57.905z"/>
	<path opacity="0.3" fill="#3764A7" d="M509.494,68.085c-1.188-0.178-2.416,1.059-3.054,1.922c-0.423,0.577-0.987,1.301-1.717,1.78
		c-0.287,0.09-0.817,0.267-1.11,0.146c-0.763-0.314-1.114-1.477-1.336-2.718c-0.07-0.402-0.062-0.855-0.094-1.294
		c-0.213-1.596-0.066-3.271-0.105-4.711c-0.032-1.074-0.143-1.467-0.29-2.805c-0.11-0.992,0.157-3.697-1.07-3.697
		c-1.163,0.003-0.796,2.8-0.743,3.765c0.006,0.679-0.156,1.716-0.109,2.605c-0.15,1.2,0.02,1.862-0.193,2.931
		c-0.143,0.718-0.303,0.581-0.726,0.822c-0.333-2.155-0.638-2.91-0.71-3.533c-0.106-0.911-0.535-2.48-0.668-3.123
		c-0.24-1.145-0.149-3.532-1.466-3.554c-1.595-0.027-0.421,3.234-0.36,4.042c0.155,1.923,0.221,1.148,0.4,3.339
		c0.094,1.145,0.62,2.515,0.557,3.075c-0.039,0.343-0.387,0.324-0.543,0.314c-0.685-0.045-1.106-1.112-1.655-1.941
		c-0.689-1.046-1.041-1.412-1.921-2.562c-0.482-4.436-0.845-8.21-0.774-10.029c0.153-3.97,2.071-4.083,3.205-6.169
		c1.134-2.085,1.413-4.079,1.501-5.184c0.063-0.815,0.249-1.895,0.412-2.618c0.296-1.011,0.976-2.632,2.089-3.756
		c2.084-2.444,2.457-2.351,4.493-4.802c0.363-0.437,1.21-1.145,1.723-1.706c1.12-1.509,1.956-2.548,1.147-3.572
		c-0.845-1.072-1.534-0.271-2.412,0.52c-1.283,1.157-1.037,1.094-2.288,2.333c-0.821,0.815-1.625,1.363-2.47,2.14
		c-0.679,0.508-1.339,0.989-1.893,1.51c-0.514,0.481-1.331,0.341-1.376,0.148c-0.061-0.259,0.303-0.816,0.527-1.248
		c0.715-1.377,2.251-3.48,2.597-3.982c0.97-1.406,0.946-1.978,1.846-3.384c0.605-0.949,1.486-2.246,2.131-3.438
		c0.772-1.429,1.302-2.557-0.021-3.529c-1.512-1.112-3.055,2.94-4.186,4.412c-1.531,1.996-2.14,2.635-3.341,4.453
		c-0.953,1.442-1.687,3.297-2.876,3.375c-0.272,0.019-0.876,0.045-0.943-0.552c-0.111-0.972,0.806-3.354,0.968-5.343
		c0.312-3.803,0.423-2.458,0.695-5.8c0.107-1.405,2.146-7.072-0.627-7.025c-2.287,0.037-2.131,4.188-2.547,6.177
		c-0.232,1.117-0.978,3.843-1.162,5.43c-0.125,1.083-0.657,2.392-1.231,6.141c-0.737-0.418-1.018-0.183-1.265-1.431
		c-0.369-1.86-0.074-3.01-0.333-5.097c0.082-1.541-0.201-3.347-0.191-4.525c0.094-1.678,0.729-6.54-1.294-6.542
		c-2.133-0.001-1.668,4.702-1.859,6.423c-0.258,2.324-0.448,3.01-0.501,4.876c-0.07,2.504,0.185,5.414-0.186,8.188
		c-0.055,0.763-0.039,1.55-0.162,2.25c-0.388,2.154-0.997,4.178-2.324,4.722c-0.505,0.209-1.432-0.096-1.928-0.253
		c-1.268-0.833-2.246-2.095-2.986-3.095c-1.11-1.499-3.242-3.647-5.306-3.341c-0.331,0.049-1.059,0.248-1.156,1.06
		c-0.021,0.172,0.183,0.87,1.793,2.256c0.306,0.325,0.685,0.832,1.511,2.3c0.291,0.521,0.682,0.714,0.997,1.14
		c0.592,0.979,1.396,1.97,1.977,2.919c0.903,1.471,1.06,2.354,2.721,4.119c2.024,2.15,1.711,3.206,4.421,5.302
		c-0.021,0.168-0.039,0.342-0.051,0.538c-0.181,0.886-0.28,1.811-0.384,2.664c-0.003,0.027-0.072,1.428-0.938,1.428
		c-0.482,0-1.422-1.263-1.975-2.113c-0.597-0.92-0.997-1.708-1.444-2.501c-0.603-1.181-1.061-2.334-1.783-3.625
		c-0.521-1.158-1.268-1.93-1.613-2.583c-0.964-1.825-1.736-3.559-2.865-2.884c-0.239,0.145-1.148,0.48,1.02,4.206
		c0.26,0.734,0.729,1.641,1.173,2.745c0.382,1.205,1.059,2.087,1.224,3.236c0.062,0.445-0.251,1.092-0.648,1.092
		c-0.295,0-2.003-2.137-3.179-2.952c-0.831-0.574-0.614-0.548-1.523-1.282c-0.225-0.18-0.88-0.639-1.214-0.895
		c-1.283-0.981-2.649-2.817-3.62-1.529c-1.068,1.416,1.35,2.602,2.332,3.544c1.006,0.98,1.747,1.961,2.542,2.6
		c0.688,0.588,1.182,1.207,2.864,2.703c-0.11,0.055,0.129,0.257-0.825,0.379c0,0-1.014-0.771-2.308-1.559
		c-0.886-0.459-2.006-1.123-2.91-1.573c-1.763-1.063-2.974-2.825-3.815-1.546c-0.953,1.45,1.571,2.6,2.599,3.469
		c1.614,1.363,1.717,1.341,2.666,1.989c0.901,0.614,2.178,1.238,3.16,2.179c-0.106,0.301-0.415,0.569-0.708,0.604
		c-0.477-0.004-1.564-0.2-1.932-0.263c-0.555-0.097-1.416-0.269-2.175-0.39c-0.649-0.104-3.317-1.64-3.692-0.045
		c-0.261,1.106,1.88,1.858,3.194,2.227c0.899,0.251,1.681,0.653,2.547,0.793c0.678,0.248,1.552,0.454,2.444,0.907
		c0.544,0.276,1.222,0.761,1.609,1.121c0.936,1.145,1.979,2.419,3.108,3.61c0.215,0.257,1.548,1.043,1.687,1.373
		c0.318,0.524-0.521,16.014-1.796,26.519c-0.505,4.176-0.061,7.155-0.646,27.155c0.377,0,6.814,0,7.687,0
		c1.464-36-0.731-50.33-0.756-55.109c-0.006-1.079,2.949-2.791,2.894-5.241c-0.036-1.56,0.366-3.672,0.386-4.443
		c0.023-0.944-0.049-0.853-0.072-1.796c-0.022-0.838-0.002-1.334-0.002-2.489c0-0.104,0.01-0.221,0.013-0.33
		c0.956,1.089,1.029,2.093,1.029,4.414c0,4.929-0.405,22.518-0.405,27.247c0,7.876,0.86,24.748,1.884,37.748
		c4.966,0,6.703,0,8.983,0c-0.163-19-0.724-32.287-1.052-38.492c-0.12-2.263-0.353-4.848-0.63-7.623
		c0.06,0.334,0.114,0.733,0.138,1.036c0.049,0.638,0.211,1.8,0.863,3.001c0.653,1.2,2.191,1.614,2.282,3.9
		c0.097,2.485,2.402,19.013,2.741,22.767c0.084,0.917,1.194,12.411,2.099,15.411c1.313,0,2.893,0,5.751,0
		c-0.574-8-1.607-13.683-2.436-18.392c-0.834-4.755-3.286-15.827-4.063-19.659c-0.235-1.162-0.524-1.548,1.169-2.817
		c1.693-1.272,1.469-1.858,2.663-3.127c0.955-1.017,1.044-1.516,1.564-2.364c0.334-0.545,0.796-1.11,1.136-1.676
		c0.182-0.243,0.406-0.352,0.573-0.652c0.477-0.843,0.694-1.135,0.871-1.321c0.926-0.798,1.043-1.199,1.031-1.298
		C510.104,68.227,509.685,68.112,509.494,68.085z M493.453,69.229c-0.06-0.056-0.13-0.108-0.193-0.163
		c-0.069-0.635-0.14-1.267-0.209-1.896c0.314,0.458,0.67,1,0.889,1.427c0.129,0.249,0.34,0.567,0.305,0.719
		C494.219,69.427,493.747,69.506,493.453,69.229z"/>
</g>
</svg>
