<?xml version="1.0" encoding="utf-8"?>
<!-- Generator: Adobe Illustrator 16.0.0, SVG Export Plug-In . SVG Version: 6.00 Build 0)  -->
<!DOCTYPE svg PUBLIC "-//W3C//DTD SVG 1.1//EN" "http://www.w3.org/Graphics/SVG/1.1/DTD/svg11.dtd">
<svg version="1.1" id="Layer_1" xmlns="http://www.w3.org/2000/svg" xmlns:xlink="http://www.w3.org/1999/xlink" x="0px" y="0px"
	 preserveAspectRatio="none" width="1440px" height="1200px" viewBox="0 0 1440 1200" enable-background="new 0 0 1440 1200" xml:space="preserve">
<rect x="1" opacity="0.2" fill="#3F73C1" width="1439" height="1200"/>
<g opacity="0.05">
	<path fill="#3764A7" d="M720.798,599.351L720.798,599.351L720.798,599.351z"/>
	<path fill="#3764A7" d="M720.798,599.351L720.798,599.351L720.798,599.351z"/>
	<path fill="#3764A7" d="M720.798,599.351L720.798,599.351L720.798,599.351z"/>
	<path fill="#3764A7" d="M720.798,599.351L720.798,599.351L720.798,599.351z"/>
	<polygon fill="#3764A7" points="720.798,599.351 720.798,599.351 720.798,599.351 	"/>
	<polygon fill="#3764A7" points="720.798,599.351 720.798,599.351 720.798,599.351 	"/>
	<polygon fill="#3764A7" points="720.798,599.351 720.798,599.351 720.798,599.351 	"/>
	<polygon fill="#3764A7" points="720.798,599.351 720.798,599.351 720.798,599.351 720.798,599.351 	"/>
	<path fill="#3764A7" d="M720.798,599.351L720.798,599.351L720.798,599.351z"/>
	<path fill="#3764A7" d="M720.798,599.351L720.798,599.351L720.798,599.351z"/>
	<path fill="#3764A7" d="M720.798,599.351L720.798,599.351L720.798,599.351z"/>
	<polygon fill="#3764A7" points="720.798,599.351 720.798,599.351 720.798,599.351 	"/>
	<path fill="#3764A7" d="M720.798,599.351L720.798,599.351L720.798,599.351z"/>
	<path fill="#3764A7" d="M720.798,599.351L720.798,599.351L720.798,599.351z"/>
	<polygon fill="#3764A7" points="720.798,599.351 720.798,599.351 720.798,599.351 	"/>
	<path fill="#3764A7" d="M720.798,599.351L720.798,599.351L720.798,599.351z"/>
	<polygon fill="#3764A7" points="720.798,599.351 720.798,599.351 720.798,599.351 720.798,599.351 	"/>
	<polygon fill="#3764A7" points="720.798,599.351 720.798,599.351 720.798,599.351 	"/>
	<polygon fill="#3764A7" points="720.798,599.351 720.798,599.351 720.798,599.351 720.798,599.351 	"/>
	<polygon fill="#3764A7" points="720.798,599.351 720.798,599.351 720.798,599.351 	"/>
	<path fill="#3764A7" d="M720.798,599.351L720.798,599.351L720.798,599.351z"/>
	<polygon fill="#3764A7" points="720.798,599.351 720.798,599.351 720.798,599.351 	"/>
	<polygon fill="#3764A7" points="720.798,599.351 720.798,599.351 720.798,599.351 720.798,599.351 	"/>
	<polygon fill="#3764A7" points="720.798,599.351 720.798,599.351 720.798,599.351 720.798,599.351 	"/>
	<polygon fill="#3764A7" points="720.798,599.351 720.798,599.351 720.798,599.351 720.798,599.351 	"/>
	<path fill="#3764A7" d="M720.798,599.351L720.798,599.351L720.798,599.351z"/>
	<polygon fill="#3764A7" points="720.798,599.351 720.798,599.351 720.798,599.351 	"/>
	<path fill="#3764A7" d="M720.798,599.351L720.798,599.351L720.798,599.351z"/>
	<path fill="#3764A7" d="M720.798,599.351L720.798,599.351L720.798,599.351z"/>
	<polygon fill="#3764A7" points="720.798,599.351 720.798,599.351 720.798,599.351 	"/>
	<polygon fill="#3764A7" points="720.798,599.351 720.798,599.351 720.798,599.351 720.798,599.351 	"/>
	<polygon fill="#3764A7" points="720.798,599.351 720.798,599.351 720.798,599.351 	"/>
	<polygon fill="#3764A7" points="720.798,599.351 720.798,599.351 720.798,599.351 720.798,599.351 	"/>
	<path fill="#3764A7" d="M720.798,599.351L720.798,599.351L720.798,599.351z"/>
	<polygon fill="#3764A7" points="720.798,599.351 720.798,599.351 720.798,599.351 	"/>
	<polygon fill="#3764A7" points="720.798,599.351 720.798,599.351 720.798,599.351 	"/>
	<polygon fill="#3764A7" points="720.798,599.351 720.798,599.351 720.798,599.351 720.798,599.351 	"/>
	<polygon fill="#3764A7" points="720.798,599.351 720.798,599.351 720.798,599.351 720.798,599.351 	"/>
	<path fill="#3764A7" d="M720.798,599.351L720.798,599.351L720.798,599.351z"/>
	<polygon fill="#3764A7" points="720.798,599.351 720.798,599.351 720.798,599.351 720.798,599.351 	"/>
	<polygon fill="#3764A7" points="720.798,599.351 720.798,599.351 720.798,599.351 	"/>
	<polygon fill="#3764A7" points="720.798,599.351 720.798,599.351 720.798,599.351 	"/>
	<polygon fill="#3764A7" points="720.798,599.351 720.798,599.351 720.798,599.351 720.798,599.351 	"/>
	<path fill="#3764A7" d="M720.798,599.351L720.798,599.351L720.798,599.351z"/>
	<polygon fill="#3764A7" points="720.798,599.351 720.798,599.351 720.798,599.351 	"/>
	<path fill="#3764A7" d="M720.798,599.351L720.798,599.351L720.798,599.351z"/>
	<polygon fill="#3764A7" points="720.798,599.351 720.798,599.351 720.798,599.351 	"/>
	<path fill="#3764A7" d="M720.798,599.351L720.798,599.351L720.798,599.351z"/>
	<polygon fill="#3764A7" points="720.798,599.351 720.798,599.351 720.798,599.351 	"/>
	<polygon fill="#3764A7" points="720.798,599.351 720.798,599.351 720.798,599.351 	"/>
	<polygon fill="#3764A7" points="720.798,599.351 720.798,599.351 720.798,599.351 	"/>
	<polygon fill="#3764A7" points="720.798,599.351 720.798,599.351 720.798,599.351 720.798,599.351 	"/>
	<path fill="#3764A7" d="M720.798,599.351L720.798,599.351L720.798,599.351z"/>
	<polygon fill="#3764A7" points="720.798,599.351 720.798,599.351 720.798,599.351 	"/>
	<path fill="#3764A7" d="M720.798,599.351L720.798,599.351L720.798,599.351z"/>
	<polygon fill="#3764A7" points="720.798,599.351 720.798,599.351 720.798,599.351 	"/>
	<path fill="#3764A7" d="M720.798,599.351L720.798,599.351L720.798,599.351z"/>
	<polygon fill="#3764A7" points="720.798,599.351 720.798,599.351 720.798,599.351 	"/>
	<polygon fill="#3764A7" points="720.798,599.351 720.798,599.351 720.798,599.351 720.798,599.351 	"/>
	<polygon fill="#3764A7" points="720.798,599.351 720.798,599.351 720.798,599.351 	"/>
	<path fill="#3764A7" d="M720.798,599.351L720.798,599.351L720.798,599.351z"/>
	<polygon fill="#3764A7" points="720.798,599.351 720.798,599.351 720.798,599.351 	"/>
	<polygon fill="#3764A7" points="720.798,599.351 720.798,599.351 720.798,599.351 	"/>
	<polygon fill="#3764A7" points="720.798,599.351 720.798,599.351 720.798,599.351 	"/>
	<path fill="#3764A7" d="M720.798,599.351L720.798,599.351L720.798,599.351z"/>
	<path fill="#3764A7" d="M720.798,599.351L720.798,599.351L720.798,599.351z"/>
	<polygon fill="#3764A7" points="720.798,599.351 720.798,599.351 720.798,599.351 	"/>
	<polygon fill="#3764A7" points="720.798,599.351 720.798,599.351 720.798,599.351 	"/>
	<path fill="#3764A7" d="M720.798,599.351L720.798,599.351L720.798,599.351z"/>
	<polygon fill="#3764A7" points="720.798,599.351 720.798,599.351 720.798,599.351 720.798,599.351 	"/>
	<path fill="#3764A7" d="M720.798,599.351L720.798,599.351L720.798,599.351z"/>
	<polygon fill="#3764A7" points="720.798,599.351 720.798,599.351 720.798,599.351 	"/>
	<polygon fill="#3764A7" points="720.798,599.351 720.798,599.351 720.798,599.351 	"/>
	<path fill="#3764A7" d="M720.798,599.351L720.798,599.351L720.798,599.351z"/>
	<polygon fill="#3764A7" points="720.798,599.351 720.798,599.351 720.798,599.351 	"/>
	<polygon fill="#3764A7" points="720.798,599.351 720.798,599.351 720.798,599.351 	"/>
	<polygon fill="#3764A7" points="720.798,599.351 720.798,599.351 720.798,599.351 	"/>
	<path fill="#3764A7" d="M720.798,599.351L720.798,599.351L720.798,599.351z"/>
	<path fill="#3764A7" d="M720.798,599.351L720.798,599.351L720.798,599.351z"/>
	<polygon fill="#3764A7" points="720.798,599.351 720.798,599.351 720.798,599.351 	"/>
	<polygon fill="#3764A7" points="720.798,599.351 720.798,599.351 720.798,599.351 	"/>
	<path fill="#3764A7" d="M720.798,599.351L720.798,599.351L720.798,599.351z"/>
	<path fill="#3764A7" d="M720.798,599.351L720.798,599.351L720.798,599.351z"/>
	<polygon fill="#3764A7" points="720.798,599.351 720.798,599.351 720.798,599.351 720.798,599.351 	"/>
	<polygon fill="#3764A7" points="720.798,599.351 720.798,599.351 720.798,599.351 	"/>
	<polygon fill="#3764A7" points="720.798,599.351 720.798,599.351 720.798,599.351 720.798,599.351 	"/>
	<polygon fill="#3764A7" points="720.798,599.351 720.798,599.351 720.798,599.351 	"/>
	<polygon fill="#3764A7" points="720.798,599.351 720.798,599.351 720.798,599.351 	"/>
	<path fill="#3764A7" d="M720.798,599.351L720.798,599.351L720.798,599.351z"/>
	<path fill="#3764A7" d="M720.798,599.351L720.798,599.351L720.798,599.351z"/>
	<polygon fill="#3764A7" points="720.798,599.351 720.798,599.351 720.798,599.351 	"/>
	<polygon fill="#3764A7" points="720.798,599.351 720.798,599.351 720.798,599.351 	"/>
	<polygon fill="#3764A7" points="720.798,599.351 720.798,599.351 720.798,599.351 720.798,599.351 720.798,599.351 	"/>
	<polygon fill="#3764A7" points="720.798,599.351 720.798,599.351 720.798,599.351 720.798,599.351 	"/>
	<polygon fill="#3764A7" points="720.798,599.351 720.798,599.351 720.798,599.351 	"/>
	<polygon fill="#3764A7" points="720.798,599.351 720.798,599.351 720.798,599.351 	"/>
	<polygon fill="#3764A7" points="720.798,599.351 720.798,599.351 720.798,599.351 	"/>
	<path fill="#3764A7" d="M720.798,599.351L720.798,599.351L720.798,599.351z"/>
	<polygon fill="#3764A7" points="720.798,599.351 720.798,599.351 720.798,599.351 720.798,599.351 720.798,599.351 	"/>
	<polygon fill="#3764A7" points="720.798,599.351 720.798,599.351 720.798,599.351 	"/>
	<polygon fill="#3764A7" points="720.798,599.351 720.798,599.351 720.798,599.351 	"/>
	<path fill="#3764A7" d="M720.798,599.351L720.798,599.351L720.798,599.351z"/>
	<polygon fill="#3764A7" points="720.798,599.351 720.798,599.351 720.798,599.351 	"/>
	<polygon fill="#3764A7" points="720.798,599.351 720.798,599.351 720.798,599.351 	"/>
	<polygon fill="#3764A7" points="720.798,599.351 720.798,599.351 720.798,599.351 720.798,599.351 	"/>
	<polygon fill="#3764A7" points="720.798,599.351 720.798,599.351 720.798,599.351 	"/>
	<path fill="#3764A7" d="M720.798,599.351L720.798,599.351L720.798,599.351z"/>
	<polygon fill="#3764A7" points="720.798,599.351 720.798,599.351 720.798,599.351 	"/>
	<path fill="#3764A7" d="M720.798,599.351L720.798,599.351L720.798,599.351z"/>
	<polygon fill="#3764A7" points="720.798,599.351 720.798,599.351 720.798,599.351 720.798,599.351 	"/>
	<path fill="#3764A7" d="M720.798,599.351L720.798,599.351L720.798,599.351z"/>
	<path fill="#3764A7" d="M720.798,599.351L720.798,599.351L720.798,599.351z"/>
	<path fill="#3764A7" d="M720.798,599.351L720.798,599.351L720.798,599.351z"/>
	<polygon fill="#3764A7" points="720.798,599.351 720.798,599.351 720.798,599.351 	"/>
	<path fill="#3764A7" d="M720.798,599.351L720.798,599.351L720.798,599.351z"/>
	<path fill="#3764A7" d="M720.798,599.351L720.798,599.351L720.798,599.351z"/>
	<path fill="#3764A7" d="M720.798,599.351L720.798,599.351L720.798,599.351z"/>
	<path fill="#3764A7" d="M720.798,599.351L720.798,599.351L720.798,599.351z"/>
	<path fill="#3764A7" d="M720.798,599.351L720.798,599.351L720.798,599.351z"/>
	<path fill="#3764A7" d="M720.798,599.351L720.798,599.351L720.798,599.351z"/>
	<path fill="#3764A7" d="M720.798,599.351L720.798,599.351L720.798,599.351z"/>
	<path fill="#3764A7" d="M720.798,599.351L720.798,599.351L720.798,599.351z"/>
	<polygon fill="#3764A7" points="720.798,599.351 720.798,599.351 720.798,599.351 	"/>
	<path fill="#3764A7" d="M720.798,599.351L720.798,599.351L720.798,599.351z"/>
	<path fill="#3764A7" d="M720.798,599.351L720.798,599.351L720.798,599.351z"/>
	<path fill="#3764A7" d="M720.798,599.351L720.798,599.351L720.798,599.351z"/>
	<polygon fill="#3764A7" points="720.798,599.351 720.798,599.351 720.798,599.351 720.798,599.351 	"/>
	<polygon fill="#3764A7" points="720.798,599.351 720.798,599.351 720.798,599.351 	"/>
	<path fill="#3764A7" d="M720.798,599.351L720.798,599.351L720.798,599.351z"/>
	<polygon fill="#3764A7" points="720.798,599.351 720.798,599.351 720.798,599.351 	"/>
	<path fill="#3764A7" d="M720.798,599.351L720.798,599.351L720.798,599.351z"/>
	<path fill="#3764A7" d="M720.798,599.351L720.798,599.351L720.798,599.351z"/>
	<polygon fill="#3764A7" points="720.798,599.351 720.798,599.351 720.798,599.351 	"/>
	<path fill="#3764A7" d="M720.798,599.351L720.798,599.351L720.798,599.351z"/>
	<polygon fill="#3764A7" points="720.798,599.351 720.798,599.351 720.798,599.351 	"/>
	<path fill="#3764A7" d="M720.798,599.351L720.798,599.351L720.798,599.351z"/>
	<polygon fill="#3764A7" points="720.798,599.351 720.798,599.351 720.798,599.351 	"/>
	<path fill="#3764A7" d="M720.798,599.351L720.798,599.351L720.798,599.351z"/>
	<path fill="#3764A7" d="M720.798,599.351L720.798,599.351L720.798,599.351z"/>
	<polygon fill="#3764A7" points="720.798,599.384 720.798,599.363 720.798,599.379 	"/>
	<polygon fill="#3764A7" points="720.798,599.373 720.798,599.363 720.798,599.363 	"/>
	<polygon fill="#3764A7" points="720.792,599.346 720.798,599.351 720.798,599.351 	"/>
	<polygon fill="#3764A7" points="720.809,599.351 720.804,599.351 720.804,599.351 	"/>
	<path fill="#3764A7" d="M720.798,599.351L720.798,599.351L720.798,599.351z"/>
	<path fill="#3764A7" d="M720.798,599.351L720.798,599.351L720.798,599.351z"/>
	<polygon fill="#3764A7" points="720.798,599.351 720.798,599.351 720.798,599.351 	"/>
	<polygon fill="#3764A7" points="720.782,599.346 720.792,599.351 720.792,599.346 	"/>
	<polygon fill="#3764A7" points="720.782,599.346 720.792,599.346 720.792,599.346 	"/>
	<polygon fill="#3764A7" points="720.792,599.351 720.798,599.351 720.798,599.351 	"/>
	<polygon fill="#3764A7" points="720.782,599.325 720.798,599.335 720.792,599.335 	"/>
	<polygon fill="#3764A7" points="720.804,599.335 720.804,599.346 720.804,599.346 	"/>
	<polygon fill="#3764A7" points="720.809,599.346 720.804,599.351 720.804,599.351 	"/>
	<polygon fill="#3764A7" points="720.804,599.351 720.804,599.351 720.798,599.351 	"/>
	<path fill="#3764A7" d="M720.798,599.351L720.798,599.351L720.798,599.351z"/>
	<path fill="#3764A7" d="M720.804,599.351h-0.006H720.804z"/>
	<path fill="#3764A7" d="M720.798,599.351L720.798,599.351L720.798,599.351z"/>
	<path fill="#3764A7" d="M720.798,599.351L720.798,599.351L720.798,599.351z"/>
	<path fill="#3764A7" d="M720.798,599.351L720.798,599.351L720.798,599.351z"/>
	<polygon fill="#3764A7" points="720.798,599.351 720.798,599.351 720.798,599.351 720.798,599.351 	"/>
	<path fill="#3764A7" d="M720.798,599.351L720.798,599.351L720.798,599.351z"/>
	<polygon fill="#3764A7" points="720.804,599.351 720.804,599.351 720.798,599.351 	"/>
	<path fill="#3764A7" d="M720.798,599.351L720.798,599.351L720.798,599.351z"/>
	<path fill="#3764A7" d="M720.798,599.351L720.798,599.351L720.798,599.351z"/>
	<path fill="#3764A7" d="M720.798,599.351L720.798,599.351L720.798,599.351z"/>
	<polygon fill="#3764A7" points="720.804,599.351 720.804,599.351 720.798,599.351 	"/>
	<polygon fill="#3764A7" points="720.804,599.351 720.798,599.351 720.798,599.351 	"/>
	<polygon fill="#3764A7" points="720.804,599.346 720.804,599.351 720.804,599.351 	"/>
	<path fill="#3764A7" d="M720.798,599.351L720.798,599.351L720.798,599.351z"/>
	<polygon fill="#3764A7" points="720.798,599.351 720.798,599.351 720.798,599.351 	"/>
	<polygon fill="#3764A7" points="720.798,599.351 720.798,599.351 720.798,599.351 720.798,599.351 	"/>
	<polygon fill="#3764A7" points="720.798,599.351 720.798,599.351 720.798,599.351 	"/>
	<polygon fill="#3764A7" points="720.798,599.351 720.798,599.351 720.798,599.351 	"/>
	<polygon fill="#3764A7" points="720.798,599.351 720.798,599.351 720.798,599.351 720.798,599.351 	"/>
	<path fill="#3764A7" d="M720.798,599.351L720.798,599.351L720.798,599.351z"/>
	<polygon fill="#3764A7" points="720.798,599.351 720.798,599.351 720.798,599.351 	"/>
	<polygon fill="#3764A7" points="720.798,599.351 720.798,599.351 720.798,599.351 	"/>
	<path fill="#3764A7" d="M720.798,599.351L720.798,599.351L720.798,599.351z"/>
	<polygon fill="#3764A7" points="720.798,599.351 720.798,599.351 720.798,599.351 720.798,599.351 	"/>
	<path fill="#3764A7" d="M720.798,599.351L720.798,599.351L720.798,599.351z"/>
	<polygon fill="#3764A7" points="720.798,599.351 720.798,599.351 720.798,599.351 	"/>
	<polygon fill="#3764A7" points="720.798,599.351 720.798,599.351 720.798,599.351 720.798,599.351 	"/>
	<polygon fill="#3764A7" points="720.798,599.351 720.798,599.351 720.798,599.351 720.798,599.351 720.798,599.351 	"/>
	<path fill="#3764A7" d="M720.798,599.351L720.798,599.351L720.798,599.351z"/>
	<polygon fill="#3764A7" points="720.798,599.351 720.798,599.351 720.798,599.351 	"/>
	<polygon fill="#3764A7" points="720.798,599.351 720.798,599.351 720.798,599.351 	"/>
	<polygon fill="#3764A7" points="720.798,599.351 720.798,599.351 720.798,599.351 720.798,599.351 	"/>
	<path fill="#3764A7" d="M720.798,599.351L720.798,599.351L720.798,599.351z"/>
	<polygon fill="#3764A7" points="720.798,599.351 720.798,599.351 720.798,599.351 	"/>
	<path fill="#3764A7" d="M720.798,599.351L720.798,599.351L720.798,599.351z"/>
	<polygon fill="#3764A7" points="720.798,599.351 720.798,599.351 720.798,599.351 	"/>
	<polygon fill="#3764A7" points="720.798,599.351 720.798,599.351 720.798,599.351 	"/>
	<polygon fill="#3764A7" points="720.798,599.351 720.798,599.351 720.798,599.351 720.798,599.351 	"/>
	<polygon fill="#3764A7" points="720.798,599.351 720.798,599.351 720.798,599.351 	"/>
	<path fill="#3764A7" d="M720.798,599.351L720.798,599.351L720.798,599.351z"/>
	<polygon fill="#3764A7" points="720.798,599.351 720.798,599.351 720.798,599.351 	"/>
	<polygon fill="#3764A7" points="720.798,599.351 720.798,599.351 720.798,599.351 720.798,599.351 	"/>
	<polygon fill="#3764A7" points="720.798,599.351 720.798,599.351 720.798,599.351 	"/>
	<polygon fill="#3764A7" points="720.798,599.351 720.798,599.351 720.798,599.351 	"/>
	<path fill="#3764A7" d="M720.798,599.351L720.798,599.351L720.798,599.351z"/>
	<polygon fill="#3764A7" points="720.798,599.351 720.798,599.351 720.798,599.351 	"/>
	<polygon fill="#3764A7" points="720.798,599.351 720.798,599.351 720.798,599.351 	"/>
	<path fill="#3764A7" d="M720.798,599.351L720.798,599.351L720.798,599.351z"/>
	<polygon fill="#3764A7" points="720.798,599.351 720.798,599.351 720.798,599.351 	"/>
	<polygon fill="#3764A7" points="720.798,599.351 720.798,599.351 720.798,599.351 	"/>
	<path fill="#3764A7" d="M720.798,599.351L720.798,599.351L720.798,599.351z"/>
	<polygon fill="#3764A7" points="720.798,599.351 720.798,599.351 720.798,599.351 720.798,599.351 	"/>
	<polygon fill="#3764A7" points="720.798,599.351 720.798,599.351 720.798,599.351 720.798,599.351 720.798,599.351 	"/>
	<path fill="#3764A7" d="M720.798,599.351L720.798,599.351L720.798,599.351z"/>
	<path fill="#3764A7" d="M720.798,599.351L720.798,599.351L720.798,599.351z"/>
	<polygon fill="#3764A7" points="720.798,599.351 720.798,599.351 720.798,599.351 720.798,599.351 	"/>
	<polygon fill="#3764A7" points="720.798,599.351 720.798,599.351 720.798,599.351 	"/>
	<polygon fill="#3764A7" points="720.798,599.351 720.798,599.351 720.798,599.351 	"/>
	<polygon fill="#3764A7" points="720.798,599.351 720.798,599.351 720.798,599.351 	"/>
	<polygon fill="#3764A7" points="720.798,599.351 720.798,599.351 720.798,599.351 	"/>
	<polygon fill="#3764A7" points="720.798,599.351 720.798,599.351 720.798,599.351 	"/>
	<polygon fill="#3764A7" points="720.798,599.351 720.798,599.351 720.798,599.351 	"/>
	<path fill="#3764A7" d="M720.798,599.351L720.798,599.351L720.798,599.351z"/>
	<polygon fill="#3764A7" points="720.798,599.351 720.798,599.351 720.798,599.351 	"/>
	<polygon fill="#3764A7" points="720.798,599.351 720.798,599.351 720.798,599.351 	"/>
	<polygon fill="#3764A7" points="720.798,599.351 720.798,599.351 720.798,599.351 	"/>
	<polygon fill="#3764A7" points="720.798,599.351 720.798,599.351 720.798,599.351 	"/>
	<polygon fill="#3764A7" points="720.804,599.351 720.804,599.351 720.804,599.351 	"/>
	<polygon fill="#3764A7" points="720.798,599.351 720.792,599.346 720.792,599.346 720.792,599.346 720.792,599.351 	"/>
	<polygon fill="#3764A7" points="720.792,599.351 720.798,599.351 720.798,599.351 	"/>
	<rect x="720.792" y="599.346" fill="#3764A7" width="0.006" height="0.005"/>
	<polygon fill="#3764A7" points="720.798,599.351 720.798,599.351 720.798,599.351 720.798,599.351 	"/>
	<polygon fill="#3764A7" points="720.798,599.351 720.798,599.351 720.798,599.351 720.798,599.351 	"/>
	<path fill="#3764A7" d="M720.798,599.351L720.798,599.351L720.798,599.351z"/>
	<polygon fill="#3764A7" points="720.804,599.346 720.798,599.346 720.798,599.346 	"/>
	<rect x="720.782" y="599.335" fill="#3764A7" width="0.026" height="0.011"/>
	<polygon fill="#3764A7" points="720.792,599.335 720.792,599.335 720.798,599.335 	"/>
	<polygon fill="#3764A7" points="720.798,599.351 720.798,599.351 720.798,599.351 720.798,599.351 720.798,599.346 
		720.798,599.335 	"/>
	<rect x="720.792" y="599.34" fill="#3764A7" width="0.017" height="0.011"/>
	<polygon fill="#3764A7" points="720.798,599.351 720.798,599.351 720.798,599.351 720.798,599.346 	"/>
	<rect x="720.798" y="599.33" fill="#3764A7" width="0.006" height="0.005"/>
	<path fill="#3764A7" d="M720.792,599.346L720.792,599.346L720.792,599.346z"/>
	<path fill="#3764A7" d="M720.798,599.351L720.798,599.351L720.798,599.351z"/>
	<polygon fill="#3764A7" points="720.798,599.351 720.792,599.351 0.826,982.04 0.826,1075.743 720.782,599.351 	"/>
	<polygon fill="#3764A7" points="721,599 721,599 720.79,599 720.75,599.23 119.958,1200 1,1200 1,1182.18 720.825,599.2 
		720.76,599 721,599 721,599 	"/>
	<polygon fill="#3764A7" points="720.792,599.351 0.826,812.548 0.826,897.473 	"/>
	<polygon fill="#3764A7" points="720.798,599.351 720.798,599.351 0.826,668.656 0.826,739.263 	"/>
	<rect x="720.788" y="599.346" fill="#3764A7" width="0.016" height="0.011"/>
	<polygon fill="#3764A7" points="720.798,599.351 720.798,599.351 720.798,599.351 720.798,599.351 	"/>
	<polygon fill="#3764A7" points="720.792,599.351 0.826,523.692 0.826,599.351 720.798,599.351 	"/>
	<rect x="720.798" y="599.351" fill="#3764A7" width="0" height="0.006"/>
	<polygon fill="#3764A7" points="720.804,599.351 720.804,599.351 720.804,599.351 	"/>
	<polygon fill="#3764A7" points="720.804,599.351 720.804,599.351 720.804,599.351 	"/>
	<path fill="#3764A7" d="M720.804,599.351L720.804,599.351L720.804,599.351z"/>
	<polygon fill="#3764A7" points="720.804,599.351 720.804,599.351 720.804,599.351 	"/>
	<polygon fill="#3764A7" points="720.798,599.351 720.804,599.351 720.804,599.351 720.804,599.351 	"/>
	<polygon fill="#3764A7" points="720.798,599.351 720.798,599.351 720.798,599.351 720.804,599.351 	"/>
	<polygon fill="#3764A7" points="720.804,599.351 720.804,599.351 720.798,599.351 	"/>
	<polygon fill="#3764A7" points="720.804,599.351 720.804,599.351 720.804,599.351 	"/>
	<polygon fill="#3764A7" points="720.798,599.351 720.798,599.351 720.798,599.351 720.804,599.351 720.804,599.351 
		720.804,599.351 	"/>
	<polygon fill="#3764A7" points="720.804,599.351 720.804,599.351 720.804,599.351 	"/>
	<rect x="720.792" y="599.34" fill="#3764A7" width="0.017" height="0.017"/>
	<polygon fill="#3764A7" points="720.804,599.351 720.804,599.351 720.804,599.351 	"/>
	<path fill="#3764A7" d="M720.804,599.351L720.804,599.351L720.804,599.351z"/>
	<polygon fill="#3764A7" points="720.804,599.346 720.804,599.346 720.804,599.346 	"/>
	<polygon fill="#3764A7" points="720.804,599.346 720.792,599.346 720.792,599.346 	"/>
	<path fill="#3764A7" d="M720.804,599.346L720.804,599.346L720.804,599.346z"/>
	<rect x="720.798" y="599.346" fill="#3764A7" width="0" height="0.005"/>
	<path fill="#3764A7" d="M720.804,599.346L720.804,599.346L720.804,599.346z"/>
	<rect x="720.792" y="599.335" fill="#3764A7" width="0.022" height="0.028"/>
	<path fill="#3764A7" d="M720.798,599.351L720.798,599.351L720.798,599.351z"/>
	<polygon fill="#3764A7" points="720.804,599.351 720.804,599.351 720.798,599.351 	"/>
	<polygon fill="#3764A7" points="720.804,599.351 720.804,599.351 720.798,599.351 	"/>
	<polygon fill="#3764A7" points="720.798,599.351 720.798,599.351 720.804,599.351 720.804,599.351 	"/>
	<polygon fill="#3764A7" points="720.798,599.351 720.798,599.351 720.804,599.351 720.804,599.351 	"/>
	<rect x="720.798" y="599.346" fill="#3764A7" width="0.006" height="0.005"/>
	<polygon fill="#3764A7" points="720.804,599.346 720.798,599.351 720.804,599.346 720.804,599.346 	"/>
	<polygon fill="#3764A7" points="720.804,599.346 720.804,599.346 720.804,599.346 	"/>
	<polygon fill="#3764A7" points="904.089,0 721,598.68 721,598.69 720.98,598.74 720.995,598.83 721,598.96 721,598.97 720.945,599 
		720.902,599.07 720.881,599.09 720.866,599.12 720.803,599.32 720.916,599.11 721,599.1 721,599.05 720.936,599.03 720.908,599 
		720.898,598.92 720.909,598.82 720.915,598.8 720.963,598.52 721.001,598.34 842.779,0 	"/>
	<polygon fill="#3764A7" points="720.79,599.32 720.71,598.89 720.865,598.85 721,598.72 721,598.71 604.253,0 663.062,0 
		720.865,598.78 721,598.85 721,598.95 720.885,598.96 	"/>
	<polygon fill="#3764A7" points="1046.314,0 721,598.97 721,598.98 720.99,599 720.97,599.04 720.975,599.11 721,599.14 721,599.15 
		721.04,599.17 721,599.33 721,599 721,599 721,599.32 720.92,599.29 720.985,599.14 721,599.12 721,599.1 721.015,599.02 721,599 
		721,598.99 720.99,598.95 721.016,598.85 969.129,0 	"/>
	<polygon fill="#3764A7" points="783.811,0 720.91,598.26 720.86,598.71 720.85,598.86 720.925,598.98 721,599 721,599.07 
		720.995,599.25 721,599.28 721,0 	"/>
	<polygon fill="#3764A7" points="1440.77,216.662 1440.77,122.965 720.804,599.346 	"/>
	<rect x="720.811" y="599.34" fill="#3764A7" width="0.01" height="0.01"/>
	<polygon fill="#3764A7" points="1440,0 1440,16.96 720.925,599.17 720.942,599.085 720.96,599 720.95,599 720.939,599.125 
		720.93,599.202 720.85,599.281 720.93,599.216 720.939,599.213 721,599.16 721,599 721.01,599 1320.343,0 	"/>
	<polygon fill="#3764A7" points="1215.029,0 721,599.1 721,599.11 720.99,599.035 720.939,599 720.93,599 720.92,599.115 
		720.811,599.283 720.91,599.166 720.92,599.158 720.945,599.154 721,599.11 721,599.1 721.016,599.05 721.018,599.04 1125.19,0 	
		"/>
	<polygon fill="#3764A7" points="721,599.32 721,599 721,599 721,599.32 720.529,598.46 720.234,597.87 472.461,0 543.203,0 
		720.58,598.63 720.725,598.76 	"/>
	<polygon fill="#3764A7" points="0.826,208.565 0.826,301.217 720.792,599.351 	"/>
	<path fill="#3764A7" d="M720.798,599.351L720.798,599.351L720.798,599.351z"/>
	<polygon fill="#3764A7" points="0.826,379.311 0.826,452.926 720.782,599.351 	"/>
	<polygon fill="#3764A7" points="721,599 721,599 721,599 721,599 721,599 721,599.33 323.963,0 402.007,0 720.78,599 721,599 
		721,599 	"/>
	<polygon fill="#3764A7" points="720.76,599.33 121.258,0 235.295,0 	"/>
	<path fill="#3764A7" d="M720.804,599.351L720.804,599.351L720.804,599.351z"/>
	<polygon fill="#3764A7" points="837.588,1200 778.648,1200 720.8,599 720.811,599 	"/>
	<rect x="720.8" y="599.36" fill="#3764A7" width="0.011" height="0.01"/>
	<polygon fill="#3764A7" points="969.67,1200 898.777,1200 720.82,599.41 	"/>
	<polygon fill="#3764A7" points="1118.478,1200 1040.272,1200 720.82,599.4 	"/>
	<polygon fill="#3764A7" points="721,599.38 721,1200 657.649,1200 	"/>
	<polygon fill="#3764A7" points="720.79,599.36 471.92,1200 394.565,1200 	"/>
	<polygon fill="#3764A7" points="720.8,599.38 598.551,1200 537.102,1200 	"/>
	<polygon fill="#3764A7" points="720.804,599.351 720.804,599.351 1440.77,675.008 1440.77,599.351 	"/>
	<polygon fill="#3764A7" points="720.804,599.351 720.809,599.351 1440.77,819.393 1440.77,745.783 	"/>
	<polygon fill="#3764A7" points="720.75,599.41 315.521,1200 225.501,1200 	"/>
	<polygon fill="#3764A7" points="720.804,599.351 1440.77,386.161 1440.77,301.217 	"/>
	<polygon fill="#3764A7" points="720.804,599.351 1440.77,530.051 1440.77,459.446 	"/>
	<polygon fill="#3764A7" points="1321.643,1200 1207.346,1200 720.915,599.39 721,599.38 721,599 720.82,599 	"/>
	<polygon fill="#3764A7" points="720.804,599.351 720.804,599.351 1440.77,1192.652 1440.77,1084.815 720.814,599.363 	"/>
	<polygon fill="#3764A7" points="720.804,599.351 720.814,599.363 1440.77,990.137 1440.77,897.474 720.809,599.351 	"/>
	<polygon fill="#3764A7" points="0.826,6.045 0.826,113.882 720.782,599.346 	"/>
	<polygon fill="#3764A7" points="720.798,599.351 720.798,599.351 720.798,599.351 	"/>
	<polygon fill="#3764A7" points="720.798,599.351 720.798,599.351 720.798,599.351 	"/>
	<polygon fill="#3764A7" points="720.798,599.351 720.798,599.351 720.798,599.351 720.798,599.351 	"/>
	<path fill="#3764A7" d="M720.798,599.351L720.798,599.351L720.798,599.351z"/>
	<rect x="720.804" y="599.351" fill="#3764A7" width="0" height="0.006"/>
	<polygon fill="#3764A7" points="720.798,599.351 720.798,599.351 720.798,599.351 	"/>
	<polygon fill="#3764A7" points="720.798,599.351 720.798,599.351 720.798,599.351 	"/>
	<path fill="#3764A7" d="M720.798,599.351L720.798,599.351L720.798,599.351z"/>
	<polygon fill="#3764A7" points="720.798,599.351 720.798,599.351 720.798,599.351 	"/>
	<polygon fill="#3764A7" points="720.798,599.351 720.798,599.351 720.798,599.351 720.798,599.351 	"/>
	<polygon fill="#3764A7" points="720.804,599.351 720.804,599.351 720.804,599.351 	"/>
	<polygon fill="#3764A7" points="720.798,599.351 720.798,599.351 720.798,599.351 	"/>
	<path fill="#3764A7" d="M720.798,599.351L720.798,599.351L720.798,599.351z"/>
	<polygon fill="#3764A7" points="720.798,599.351 720.798,599.351 720.798,599.351 	"/>
	<polygon fill="#3764A7" points="720.798,599.351 720.798,599.351 720.798,599.351 	"/>
	<path fill="#3764A7" d="M720.798,599.351L720.798,599.351L720.798,599.351z"/>
	<path fill="#3764A7" d="M720.798,599.351L720.798,599.351L720.798,599.351z"/>
	<polygon fill="#3764A7" points="720.798,599.351 720.798,599.351 720.798,599.351 	"/>
	<polygon fill="#3764A7" points="720.798,599.351 720.798,599.351 720.798,599.351 	"/>
	<path fill="#3764A7" d="M720.798,599.351L720.798,599.351L720.798,599.351z"/>
	<path fill="#3764A7" d="M720.798,599.351L720.798,599.351L720.798,599.351z"/>
	<polygon fill="#3764A7" points="720.798,599.351 720.804,599.351 720.804,599.351 720.798,599.351 	"/>
	<polygon fill="#3764A7" points="720.798,599.351 720.798,599.351 720.804,599.351 720.804,599.351 720.804,599.351 	"/>
	<path fill="#3764A7" d="M720.798,599.351L720.798,599.351L720.798,599.351z"/>
	<polygon fill="#3764A7" points="720.798,599.351 720.798,599.351 720.798,599.351 	"/>
	<rect x="720.804" y="599.351" fill="#3764A7" width="0" height="0.006"/>
	<polygon fill="#3764A7" points="720.798,599.351 720.798,599.351 720.798,599.351 	"/>
	<polygon fill="#3764A7" points="720.798,599.351 720.798,599.351 720.798,599.351 	"/>
	<polygon fill="#3764A7" points="720.798,599.351 720.798,599.351 720.798,599.351 	"/>
	<polygon fill="#3764A7" points="720.798,599.351 720.798,599.351 720.798,599.351 	"/>
	<path fill="#3764A7" d="M720.798,599.351L720.798,599.351L720.798,599.351z"/>
	<path fill="#3764A7" d="M720.798,599.351L720.798,599.351L720.798,599.351z"/>
	<polygon fill="#3764A7" points="720.798,599.351 720.798,599.351 720.798,599.351 720.798,599.351 	"/>
	<path fill="#3764A7" d="M720.798,599.351L720.798,599.351L720.798,599.351z"/>
	<path fill="#3764A7" d="M720.798,599.351L720.798,599.351L720.798,599.351z"/>
	<polygon fill="#3764A7" points="720.798,599.351 720.798,599.351 720.798,599.351 	"/>
	<path fill="#3764A7" d="M720.798,599.351L720.798,599.351L720.798,599.351z"/>
	<polygon fill="#3764A7" points="720.798,599.351 720.798,599.351 720.798,599.351 	"/>
	<path fill="#3764A7" d="M720.798,599.351L720.798,599.351L720.798,599.351z"/>
	<polygon fill="#3764A7" points="720.804,599.351 720.804,599.351 720.804,599.351 	"/>
	<path fill="#3764A7" d="M720.798,599.351L720.798,599.351L720.798,599.351z"/>
	<path fill="#3764A7" d="M720.798,599.351L720.798,599.351L720.798,599.351z"/>
	<polygon fill="#3764A7" points="720.798,599.351 720.798,599.351 720.798,599.351 720.798,599.351 	"/>
	<polygon fill="#3764A7" points="720.798,599.351 720.798,599.351 720.798,599.351 720.798,599.351 	"/>
	<polygon fill="#3764A7" points="720.798,599.351 720.798,599.351 720.798,599.351 720.798,599.351 	"/>
	<path fill="#3764A7" d="M720.798,599.351L720.798,599.351L720.798,599.351z"/>
	<polygon fill="#3764A7" points="720.798,599.351 720.798,599.351 720.798,599.351 720.798,599.351 	"/>
	<polygon fill="#3764A7" points="720.798,599.351 720.798,599.351 720.798,599.351 	"/>
	<path fill="#3764A7" d="M720.798,599.351L720.798,599.351L720.798,599.351z"/>
	<polygon fill="#3764A7" points="720.798,599.351 720.798,599.351 720.798,599.351 	"/>
	<polygon fill="#3764A7" points="720.798,599.351 720.798,599.351 720.798,599.351 720.798,599.351 	"/>
	<polygon fill="#3764A7" points="720.798,599.351 720.798,599.351 720.798,599.351 	"/>
	<polygon fill="#3764A7" points="720.798,599.351 720.798,599.351 720.798,599.351 	"/>
	<polygon fill="#3764A7" points="720.798,599.351 720.798,599.351 720.798,599.351 	"/>
	<polygon fill="#3764A7" points="720.798,599.351 720.798,599.351 720.798,599.351 	"/>
	<polygon fill="#3764A7" points="720.798,599.351 720.798,599.351 720.798,599.351 720.798,599.351 	"/>
	<path fill="#3764A7" d="M720.798,599.351L720.798,599.351L720.798,599.351z"/>
	<polygon fill="#3764A7" points="720.798,599.351 720.798,599.351 720.782,599.351 720.798,599.351 	"/>
	<polygon fill="#3764A7" points="720.798,599.351 720.798,599.351 720.798,599.351 	"/>
	<rect x="720.792" y="599.346" fill="#3764A7" width="0.012" height="0.011"/>
	<path fill="#3764A7" d="M720.798,599.351L720.798,599.351L720.798,599.351z"/>
	<polygon fill="#3764A7" points="720.792,599.351 720.798,599.351 720.798,599.351 	"/>
	<polygon fill="#3764A7" points="720.798,599.351 720.798,599.351 720.798,599.351 	"/>
	<polygon fill="#3764A7" points="720.798,599.351 720.798,599.351 720.798,599.351 	"/>
	<polygon fill="#3764A7" points="720.798,599.351 720.798,599.351 720.798,599.351 	"/>
	<polygon fill="#3764A7" points="720.798,599.351 720.798,599.351 720.798,599.351 720.792,599.351 	"/>
	<path fill="#3764A7" d="M720.798,599.351L720.798,599.351L720.798,599.351z"/>
	<rect x="720.798" y="599.351" fill="#3764A7" width="0" height="0.006"/>
	<polygon fill="#3764A7" points="720.798,599.351 720.798,599.351 720.798,599.351 720.809,599.373 720.804,599.351 
		720.804,599.351 	"/>
	<polygon fill="#3764A7" points="720.798,599.351 720.798,599.351 720.798,599.351 720.798,599.351 	"/>
	<rect x="720.804" y="599.351" fill="#3764A7" width="0" height="0.006"/>
	<polygon fill="#3764A7" points="720.798,599.351 720.798,599.351 720.798,599.351 720.798,599.351 	"/>
	<rect x="720.798" y="599.346" fill="#3764A7" width="0.011" height="0.033"/>
	<polygon fill="#3764A7" points="720.798,599.351 720.798,599.351 720.798,599.351 	"/>
	<path fill="#3764A7" d="M720.798,599.351L720.798,599.351L720.798,599.351z"/>
	<polygon fill="#3764A7" points="720.798,599.351 720.798,599.351 720.798,599.351 	"/>
	<path fill="#3764A7" d="M720.798,599.351v0.012V599.351z"/>
	<polygon fill="#3764A7" points="720.798,599.351 720.798,599.351 720.798,599.351 720.798,599.351 720.798,599.351 	"/>
	<polygon fill="#3764A7" points="720.798,599.351 720.798,599.351 720.798,599.363 720.798,599.351 	"/>
	<path fill="#3764A7" d="M720.798,599.351L720.798,599.351L720.798,599.351z"/>
	<circle fill="#3764A7" cx="720.798" cy="599.363" r="0"/>
	<polygon fill="#3764A7" points="720.798,599.351 720.798,599.351 720.798,599.351 720.798,599.363 720.798,599.363 	"/>
	<polygon fill="#3764A7" points="720.798,599.351 720.798,599.351 720.798,599.351 	"/>
	<polygon fill="#3764A7" points="720.798,599.351 720.798,599.351 720.798,599.351 	"/>
	<polygon fill="#3764A7" points="720.798,599.351 720.798,599.351 720.798,599.351 	"/>
	<path fill="#3764A7" d="M720.798,599.351L720.798,599.351L720.798,599.351z"/>
	<path fill="#3764A7" d="M720.798,599.351L720.798,599.351L720.798,599.351z"/>
	<path fill="#3764A7" d="M720.798,599.351L720.798,599.351L720.798,599.351z"/>
	<polygon fill="#3764A7" points="720.798,599.351 720.798,599.351 720.798,599.351 720.798,599.351 	"/>
	<polygon fill="#3764A7" points="720.798,599.351 720.798,599.351 720.798,599.351 	"/>
	<polygon fill="#3764A7" points="720.798,599.351 720.798,599.351 720.798,599.351 720.798,599.351 	"/>
	<path fill="#3764A7" d="M720.798,599.351L720.798,599.351L720.798,599.351z"/>
	<path fill="#3764A7" d="M720.798,599.351L720.798,599.351L720.798,599.351z"/>
	<polygon fill="#3764A7" points="720.798,599.351 720.798,599.351 720.798,599.351 	"/>
	<polygon fill="#3764A7" points="720.798,599.351 720.804,599.346 720.804,599.346 720.798,599.351 	"/>
	<path fill="#3764A7" d="M720.798,599.351l0.006-0.005L720.798,599.351z"/>
	<polygon fill="#3764A7" points="720.798,599.351 720.798,599.351 720.798,599.351 720.798,599.351 	"/>
	<polygon fill="#3764A7" points="720.798,599.351 720.798,599.351 720.798,599.351 	"/>
	<path fill="#3764A7" d="M720.798,599.351L720.798,599.351L720.798,599.351z"/>
	<polygon fill="#3764A7" points="720.798,599.351 720.798,599.351 720.798,599.351 	"/>
	<polygon fill="#3764A7" points="720.798,599.351 720.798,599.351 720.798,599.351 	"/>
	<polygon fill="#3764A7" points="720.798,599.351 720.798,599.351 720.798,599.351 	"/>
	<path fill="#3764A7" d="M720.798,599.351L720.798,599.351L720.798,599.351z"/>
	<path fill="#3764A7" d="M720.798,599.351L720.798,599.351L720.798,599.351z"/>
	<polygon fill="#3764A7" points="720.798,599.351 720.798,599.351 720.798,599.351 	"/>
	<polygon fill="#3764A7" points="720.798,599.351 720.798,599.351 720.798,599.351 	"/>
	<polygon fill="#3764A7" points="720.798,599.351 720.798,599.351 720.798,599.351 	"/>
	<polygon fill="#3764A7" points="720.798,599.351 720.798,599.351 720.798,599.351 	"/>
	<polygon fill="#3764A7" points="720.798,599.351 720.798,599.351 720.798,599.351 720.798,599.351 	"/>
</g>
</svg>
