<?xml version="1.0" encoding="utf-8"?>
<!-- Generator: Adobe Illustrator 13.0.0, SVG Export Plug-In . SVG Version: 6.00 Build 14948)  -->
<!DOCTYPE svg PUBLIC "-//W3C//DTD SVG 1.1//EN" "http://www.w3.org/Graphics/SVG/1.1/DTD/svg11.dtd">
<svg version="1.1" id="Layer_1" xmlns="http://www.w3.org/2000/svg" xmlns:xlink="http://www.w3.org/1999/xlink" x="0px" y="0px"
	 width="360px" height="54px" viewBox="0 0 360 54" enable-background="new 0 0 360 54" xml:space="preserve">
<g>
	<g>
		<path fill="#4E87E1" d="M8.268,42.814c-0.503,0-0.887-0.111-1.153-0.334c-0.267-0.223-0.399-0.535-0.399-0.936
			c0-0.547,0.488-1.086,1.465-1.617c0.1-0.058,0.165-0.092,0.194-0.107c0.186-0.086,0.316-0.215,0.388-0.388
			c0.072-0.172,0.108-0.46,0.108-0.861v-0.303v-22.45c0-0.575-0.051-0.975-0.152-1.197c-0.101-0.223-0.294-0.441-0.581-0.656
			c-0.058-0.044-0.15-0.109-0.28-0.194c-0.56-0.374-0.84-0.842-0.84-1.402c0-0.445,0.186-0.792,0.56-1.043
			c0.373-0.251,0.912-0.378,1.616-0.378h19.413c1.335,0,2.204,0.328,2.607,0.98c0.402,0.654,0.604,2.05,0.604,4.191
			c0,0.791-0.101,1.36-0.302,1.713c-0.201,0.351-0.524,0.527-0.97,0.527c-0.546,0-1.213-0.489-2.003-1.465
			c-0.215-0.272-0.388-0.487-0.517-0.646c-0.589-0.675-1.329-1.153-2.219-1.433c-0.89-0.28-2.241-0.42-4.051-0.42h-2.563
			c-0.92,0-1.538,0.173-1.853,0.518c-0.317,0.345-0.474,1.141-0.474,2.392v7.368h6.658c0.488,0,0.894-0.029,1.217-0.086
			s0.607-0.144,0.852-0.259c0.157-0.086,0.445-0.352,0.861-0.796c0.417-0.445,0.812-0.669,1.186-0.669
			c0.402,0,0.722,0.176,0.958,0.529c0.237,0.351,0.356,0.836,0.356,1.454v3.489c0,0.604-0.119,1.078-0.356,1.423
			c-0.237,0.343-0.557,0.516-0.958,0.516c-0.345,0-0.812-0.28-1.4-0.84c-0.202-0.202-0.367-0.359-0.496-0.474
			c-0.187-0.157-0.467-0.28-0.84-0.366c-0.374-0.086-0.833-0.129-1.379-0.129h-6.658v9.803c0,0.418,0.057,0.74,0.172,0.97
			c0.115,0.23,0.309,0.409,0.582,0.539c0.101,0.042,0.251,0.108,0.453,0.194c0.905,0.387,1.357,0.882,1.357,1.486
			c0,0.474-0.15,0.817-0.453,1.034c-0.301,0.214-0.783,0.322-1.443,0.322H8.268z"/>
		<path fill="#4E87E1" d="M50.928,39.367c1.695,0,2.934-0.111,3.716-0.334c0.783-0.222,1.52-0.606,2.209-1.153
			c0.173-0.144,0.417-0.416,0.733-0.819c0.646-0.846,1.285-1.27,1.917-1.27c0.459,0,0.822,0.128,1.087,0.387
			c0.266,0.259,0.399,0.618,0.399,1.077c0,2.327-0.201,3.836-0.603,4.525c-0.402,0.69-1.271,1.034-2.607,1.034H35.394
			c-0.474,0-0.833-0.1-1.077-0.301c-0.245-0.202-0.366-0.495-0.366-0.884c0-0.343,0.064-0.624,0.193-0.84
			c0.129-0.215,0.431-0.451,0.905-0.71c0.388-0.201,0.646-0.395,0.776-0.581c0.129-0.188,0.194-0.526,0.194-1.013v-0.217V15.321
			c0-0.372-0.036-0.646-0.107-0.819c-0.072-0.171-0.266-0.38-0.583-0.624c-0.058-0.044-0.122-0.094-0.194-0.151
			c-0.56-0.388-0.84-0.854-0.84-1.4c0-0.474,0.158-0.823,0.474-1.045c0.316-0.223,0.819-0.334,1.509-0.334h19.067
			c1.825,0,2.952,0.299,3.383,0.894c0.432,0.597,0.646,1.964,0.646,4.105c0,0.576-0.086,0.998-0.258,1.272
			c-0.173,0.272-0.446,0.409-0.819,0.409c-0.574,0-1.257-0.409-2.046-1.228c-0.36-0.358-0.646-0.633-0.862-0.819
			c-0.546-0.474-1.31-0.819-2.294-1.034c-0.984-0.215-2.281-0.324-3.889-0.324h-2.866c-0.905,0-1.519,0.176-1.842,0.529
			c-0.323,0.351-0.485,1.158-0.485,2.423v6.485h7.283c0.488,0,0.916-0.029,1.282-0.086c0.367-0.057,0.628-0.128,0.787-0.215
			c0.1-0.057,0.237-0.159,0.41-0.301c0.53-0.418,1.026-0.625,1.487-0.625c0.459,0,0.818,0.149,1.077,0.453
			c0.258,0.301,0.387,0.725,0.387,1.27v2.737c0,0.717-0.115,1.228-0.344,1.529c-0.23,0.303-0.618,0.453-1.164,0.453
			c-0.245,0-0.755-0.236-1.53-0.711c-0.776-0.474-1.616-0.71-2.521-0.71h-7.153v10.276c0,0.662,0.129,1.099,0.389,1.316
			c0.258,0.215,0.847,0.322,1.767,0.322H50.928z"/>
		<path fill="#4E87E1" d="M76.633,43.741c-2.126,0-4.022-0.244-5.688-0.733c-1.666-0.487-3.124-1.228-4.374-2.219
			c-0.905-0.731-1.641-1.55-2.208-2.456c-0.568-0.905-0.852-1.702-0.852-2.392c0-0.675,0.255-1.256,0.765-1.746
			c0.509-0.487,1.123-0.73,1.842-0.73c0.891,0,1.667,0.652,2.328,1.96c0.244,0.474,0.438,0.833,0.581,1.076
			c0.748,1.165,1.777,2.072,3.092,2.726c1.314,0.654,2.79,0.98,4.427,0.98c2.125,0,3.789-0.434,4.988-1.303
			c1.2-0.869,1.799-2.066,1.799-3.587c0-1.222-0.445-2.141-1.336-2.758c-0.89-0.618-3.017-1.214-6.377-1.788
			c-0.187-0.029-0.481-0.081-0.883-0.152c-3.505-0.56-5.976-1.479-7.412-2.758c-0.962-0.861-1.673-1.853-2.133-2.974
			c-0.459-1.12-0.688-2.426-0.688-3.921c0-3.102,1.203-5.655,3.608-7.66c2.407-2.004,5.512-3.006,9.319-3.006
			c1.651,0,3.185,0.152,4.6,0.453c1.415,0.301,2.718,0.753,3.91,1.358c0.718,0.359,1.221,0.817,1.509,1.377
			c0.287,0.562,0.431,1.379,0.431,2.457c0,1.049-0.115,1.767-0.344,2.154c-0.23,0.388-0.646,0.582-1.25,0.582
			c-0.747,0-1.443-0.545-2.09-1.637c-0.187-0.33-0.345-0.581-0.474-0.754c-0.661-0.949-1.486-1.663-2.478-2.145
			c-0.991-0.481-2.147-0.721-3.469-0.721c-1.882,0-3.369,0.434-4.46,1.303c-1.091,0.869-1.637,2.05-1.637,3.545
			c0,1.193,0.442,2.101,1.326,2.726c0.883,0.625,2.99,1.231,6.323,1.82c2.355,0.403,4.061,0.798,5.117,1.186
			c1.056,0.388,1.964,0.89,2.726,1.508c1.077,0.861,1.878,1.867,2.402,3.016c0.524,1.151,0.786,2.486,0.786,4.009
			c0,3.403-1.242,6.121-3.727,8.155C84.145,42.726,80.813,43.741,76.633,43.741z"/>
		<path fill="#4E87E1" d="M109.77,37.169c0,0.892,0.043,1.502,0.129,1.832c0.086,0.332,0.23,0.554,0.432,0.667
			c0.129,0.086,0.293,0.188,0.495,0.303c0.833,0.487,1.25,1.026,1.25,1.615c0,0.417-0.168,0.725-0.506,0.927
			c-0.337,0.201-0.851,0.301-1.54,0.301h-8.424c-0.646,0-1.132-0.108-1.455-0.322c-0.323-0.217-0.484-0.532-0.484-0.948
			c0-0.561,0.417-1.07,1.25-1.531c0.2-0.115,0.344-0.194,0.431-0.236c0.216-0.13,0.373-0.362,0.474-0.702
			c0.101-0.335,0.152-0.871,0.152-1.604V14.654h-1.81c-0.934,0-1.75,0.19-2.446,0.572c-0.697,0.38-1.491,1.096-2.381,2.143
			c-0.029,0.028-0.08,0.086-0.151,0.172c-0.761,0.905-1.429,1.358-2.003,1.358c-0.417,0-0.733-0.126-0.948-0.377
			c-0.216-0.251-0.323-0.614-0.323-1.088c0-0.201,0.007-0.359,0.021-0.474c0.014-0.115,0.037-0.223,0.065-0.324l0.754-3.597
			c0.143-0.806,0.377-1.354,0.7-1.65c0.324-0.293,0.837-0.441,1.541-0.441h21.719c0.704,0,1.213,0.148,1.53,0.441
			c0.315,0.295,0.552,0.844,0.711,1.65l0.754,3.62c0.029,0.1,0.051,0.207,0.065,0.322c0.015,0.115,0.021,0.267,0.021,0.453
			c0,0.474-0.111,0.836-0.333,1.088c-0.223,0.251-0.535,0.377-0.937,0.377c-0.575,0-1.243-0.453-2.004-1.358
			c-0.072-0.086-0.129-0.151-0.172-0.194c-0.877-1.034-1.666-1.742-2.37-2.122c-0.704-0.382-1.516-0.572-2.434-0.572h-1.768V37.169z
			"/>
		<path fill="#4E87E1" d="M131.791,10.948c0.632,0,1.098,0.105,1.4,0.313c0.301,0.209,0.453,0.52,0.453,0.938
			c0,0.516-0.36,1.026-1.078,1.529c-0.143,0.102-0.258,0.18-0.344,0.238c-0.202,0.144-0.344,0.38-0.431,0.71
			c-0.086,0.332-0.129,0.855-0.129,1.573v20.921c0,0.905,0.028,1.523,0.086,1.853c0.056,0.332,0.165,0.554,0.323,0.669
			c0.1,0.071,0.251,0.171,0.452,0.301c0.747,0.474,1.121,1.005,1.121,1.594c0,0.417-0.158,0.725-0.475,0.927
			c-0.316,0.201-0.804,0.301-1.465,0.301h-8.123c-0.603,0-1.063-0.108-1.379-0.322c-0.316-0.217-0.474-0.532-0.474-0.948
			c0-0.502,0.344-0.984,1.034-1.445c0.201-0.128,0.352-0.23,0.453-0.301c0.186-0.144,0.326-0.384,0.42-0.724
			c0.093-0.335,0.14-0.871,0.14-1.604V16.593c0-0.833-0.035-1.437-0.107-1.811c-0.072-0.373-0.187-0.616-0.345-0.731
			c-0.115-0.086-0.287-0.201-0.517-0.345c-0.718-0.445-1.077-0.948-1.077-1.508c0-0.432,0.161-0.748,0.484-0.95
			c0.323-0.2,0.815-0.301,1.476-0.301H131.791z"/>
		<path fill="#4E87E1" d="M153.423,36.76c2.111-4.309,3.777-8.327,4.998-12.055c1.221-3.727,1.832-6.518,1.832-8.371
			c0-0.474-0.065-0.84-0.195-1.099c-0.128-0.257-0.431-0.524-0.904-0.796c-0.101-0.058-0.266-0.152-0.496-0.28
			c-0.962-0.531-1.443-1.07-1.443-1.617c0-0.531,0.165-0.928,0.496-1.195c0.33-0.267,0.826-0.399,1.487-0.399h5.127
			c0.92,0,1.583,0.14,1.993,0.42c0.41,0.28,0.614,0.729,0.614,1.346c0,0.302-0.054,0.557-0.161,0.766s-0.348,0.47-0.722,0.787
			c-0.56,0.474-0.933,1.091-1.12,1.853c-0.014,0.058-0.029,0.107-0.043,0.149c-0.029,0.13-0.101,0.418-0.215,0.863
			c-0.689,2.786-1.451,5.437-2.284,7.949c-1.408,4.282-2.816,7.977-4.223,11.086c-1.408,3.109-2.623,5.225-3.642,6.346
			c-0.373,0.416-0.805,0.717-1.293,0.905c-0.488,0.186-1.113,0.28-1.874,0.28c-0.589,0-1.088-0.077-1.497-0.227
			c-0.41-0.151-0.823-0.399-1.239-0.744c-0.92-0.804-2.012-2.588-3.274-5.354c-1.264-2.764-2.644-6.38-4.138-10.848
			c-0.818-2.427-1.537-4.909-2.154-7.445c-0.618-2.534-0.978-3.889-1.077-4.061c-0.086-0.158-0.403-0.47-0.949-0.938
			c-0.545-0.466-0.818-1.009-0.818-1.627c0-0.531,0.168-0.915,0.506-1.153c0.336-0.236,0.908-0.355,1.713-0.355h6.744
			c1.364,0,2.266,0.127,2.704,0.378c0.438,0.251,0.657,0.7,0.657,1.347c0,0.344-0.064,0.622-0.194,0.829
			c-0.129,0.209-0.431,0.464-0.904,0.765c-0.058,0.029-0.137,0.071-0.238,0.128c-0.531,0.316-0.797,0.641-0.797,0.971
			c0,0.66,0.158,1.705,0.474,3.134c0.316,1.429,0.761,3.106,1.336,5.032c0.934,3.088,1.813,5.676,2.64,7.767
			C151.674,33.388,152.532,35.208,153.423,36.76z"/>
		<path fill="#4E87E1" d="M172.75,32.625c-0.632,1.953-1.066,3.371-1.304,4.255c-0.237,0.882-0.356,1.511-0.356,1.885
			c0,0.401,0.201,0.746,0.604,1.034c0.129,0.086,0.223,0.149,0.28,0.194c0.431,0.316,0.722,0.585,0.873,0.808
			c0.151,0.222,0.227,0.47,0.227,0.744c0,0.372-0.105,0.677-0.313,0.915c-0.208,0.236-0.471,0.355-0.786,0.355h-6.184
			c-0.504,0-0.894-0.111-1.174-0.334c-0.281-0.223-0.421-0.535-0.421-0.936c0-0.476,0.281-0.913,0.841-1.316
			c0.56-0.401,0.883-0.66,0.969-0.775c0.216-0.272,0.823-1.882,1.821-4.827c0.998-2.944,1.907-5.538,2.725-7.778
			c1.005-2.786,1.994-5.314,2.963-7.583c0.97-2.27,1.849-4.117,2.64-5.538l0.173-0.301c1.134-2.112,2.413-3.167,3.834-3.167
			c0.876,0,1.544,0.111,2.003,0.333c0.46,0.223,0.898,0.635,1.315,1.24c0.575,0.79,1.483,2.534,2.725,5.234
			c1.243,2.701,2.524,5.782,3.846,9.245c1.106,2.9,2.102,5.766,2.985,8.596s1.347,4.274,1.389,4.331
			c0.101,0.144,0.428,0.42,0.981,0.829c0.552,0.411,0.829,0.873,0.829,1.391c0,0.445-0.169,0.783-0.505,1.013
			c-0.339,0.229-0.844,0.344-1.52,0.344h-8.295c-0.531,0-0.937-0.119-1.217-0.355c-0.28-0.238-0.42-0.572-0.42-1.001
			c0-0.531,0.266-1,0.797-1.4c0.531-0.403,0.797-0.777,0.797-1.122c0-0.372-0.162-1.134-0.484-2.283
			c-0.323-1.149-0.751-2.492-1.283-4.028H172.75z M174.085,28.659h8.641c-0.833-2.442-1.627-4.607-2.381-6.497
			c-0.754-1.888-1.382-3.328-1.885-4.32c-0.776,1.638-1.523,3.347-2.241,5.129C175.5,24.752,174.789,26.649,174.085,28.659z"/>
		<path fill="#4E87E1" d="M200.134,42.814c-0.661,0-1.152-0.111-1.475-0.334s-0.485-0.564-0.485-1.022
			c0-0.633,0.424-1.136,1.272-1.51c0.114-0.056,0.207-0.1,0.28-0.128c0.388-0.202,0.639-0.413,0.754-0.635
			c0.115-0.223,0.173-0.614,0.173-1.174V15.494c0-0.288-0.047-0.52-0.14-0.7c-0.094-0.18-0.256-0.326-0.485-0.441
			c-0.072-0.044-0.187-0.102-0.344-0.173c-0.906-0.46-1.358-1.021-1.358-1.68c0-0.531,0.176-0.923,0.528-1.174
			c0.352-0.251,0.894-0.378,1.627-0.378h9.264c0.589,0,1.038,0.133,1.347,0.399s0.463,0.65,0.463,1.153
			c0,0.717-0.409,1.22-1.228,1.507c-0.202,0.073-0.352,0.129-0.453,0.173c-0.445,0.202-0.739,0.424-0.883,0.667
			c-0.144,0.246-0.216,0.725-0.216,1.444v21.007c0,0.963,0.198,1.583,0.593,1.862c0.395,0.28,1.333,0.42,2.812,0.42
			c1.738,0,3.12-0.128,4.147-0.388c1.027-0.259,1.878-0.681,2.553-1.27c0.316-0.288,0.711-0.698,1.186-1.229
			c0.732-0.833,1.335-1.249,1.81-1.249c0.517,0,0.918,0.128,1.207,0.387c0.287,0.259,0.431,0.618,0.431,1.078
			c0,0.458-0.058,1.001-0.173,1.627c-0.115,0.623-0.294,1.347-0.538,2.166c-0.273,0.904-0.567,1.483-0.883,1.734
			c-0.316,0.251-0.798,0.376-1.444,0.376H200.134z"/>
		<path fill="#4E87E1" d="M238.572,43.741c-2.125,0-4.021-0.244-5.688-0.733c-1.667-0.487-3.125-1.228-4.374-2.219
			c-0.905-0.731-1.642-1.55-2.209-2.456c-0.568-0.905-0.851-1.702-0.851-2.392c0-0.675,0.254-1.256,0.764-1.746
			c0.509-0.487,1.125-0.73,1.843-0.73c0.89,0,1.666,0.652,2.327,1.96c0.244,0.474,0.438,0.833,0.582,1.076
			c0.747,1.165,1.778,2.072,3.092,2.726c1.314,0.654,2.79,0.98,4.427,0.98c2.126,0,3.789-0.434,4.988-1.303
			c1.199-0.869,1.798-2.066,1.798-3.587c0-1.222-0.445-2.141-1.335-2.758c-0.891-0.618-3.017-1.214-6.378-1.788
			c-0.186-0.029-0.481-0.081-0.883-0.152c-3.505-0.56-5.976-1.479-7.411-2.758c-0.963-0.861-1.674-1.853-2.133-2.974
			c-0.46-1.12-0.689-2.426-0.689-3.921c0-3.102,1.203-5.655,3.609-7.66c2.405-2.004,5.512-3.006,9.318-3.006
			c1.651,0,3.185,0.152,4.6,0.453c1.415,0.301,2.718,0.753,3.911,1.358c0.717,0.359,1.22,0.817,1.508,1.377
			c0.288,0.562,0.431,1.379,0.431,2.457c0,1.049-0.115,1.767-0.344,2.154c-0.23,0.388-0.646,0.582-1.25,0.582
			c-0.747,0-1.443-0.545-2.09-1.637c-0.187-0.33-0.344-0.581-0.474-0.754c-0.661-0.949-1.487-1.663-2.479-2.145
			c-0.991-0.481-2.147-0.721-3.468-0.721c-1.882,0-3.369,0.434-4.46,1.303c-1.092,0.869-1.638,2.05-1.638,3.545
			c0,1.193,0.442,2.101,1.326,2.726c0.883,0.625,2.991,1.231,6.323,1.82c2.356,0.403,4.062,0.798,5.117,1.186
			c1.056,0.388,1.964,0.89,2.726,1.508c1.077,0.861,1.878,1.867,2.403,3.016c0.523,1.151,0.787,2.486,0.787,4.009
			c0,3.403-1.243,6.121-3.729,8.155C246.084,42.726,242.752,43.741,238.572,43.741z"/>
		<path fill="#4E87E1" d="M261.174,36.718c0.991,0,1.835,0.338,2.531,1.011c0.697,0.677,1.045,1.502,1.045,2.479
			c0,0.905-0.352,1.67-1.056,2.294c-0.704,0.625-1.573,0.938-2.607,0.938c-1.048,0-1.921-0.313-2.618-0.938
			c-0.697-0.624-1.045-1.389-1.045-2.294c0-1.019,0.348-1.857,1.045-2.509C259.167,37.044,260.068,36.718,261.174,36.718z"/>
		<path fill="#4E87E1" d="M280.351,10.948c0.632,0,1.099,0.105,1.4,0.313c0.302,0.209,0.453,0.52,0.453,0.938
			c0,0.516-0.359,1.026-1.077,1.529c-0.144,0.102-0.259,0.18-0.345,0.238c-0.202,0.144-0.344,0.38-0.431,0.71
			c-0.086,0.332-0.129,0.855-0.129,1.573v20.921c0,0.905,0.028,1.523,0.086,1.853c0.057,0.332,0.165,0.554,0.323,0.669
			c0.1,0.071,0.251,0.171,0.453,0.301c0.746,0.474,1.12,1.005,1.12,1.594c0,0.417-0.158,0.725-0.474,0.927
			c-0.316,0.201-0.805,0.301-1.466,0.301h-8.123c-0.603,0-1.063-0.108-1.379-0.322c-0.316-0.217-0.474-0.532-0.474-0.948
			c0-0.502,0.345-0.984,1.034-1.445c0.201-0.128,0.352-0.23,0.453-0.301c0.187-0.144,0.327-0.384,0.42-0.724
			c0.093-0.335,0.14-0.871,0.14-1.604V16.593c0-0.833-0.035-1.437-0.107-1.811c-0.072-0.373-0.187-0.616-0.344-0.731
			c-0.115-0.086-0.288-0.201-0.518-0.345c-0.718-0.445-1.077-0.948-1.077-1.508c0-0.432,0.162-0.748,0.485-0.95
			c0.323-0.2,0.814-0.301,1.475-0.301H280.351z"/>
		<path fill="#4E87E1" d="M303.21,39.367c1.695,0,2.934-0.111,3.717-0.334c0.783-0.222,1.519-0.606,2.209-1.153
			c0.171-0.144,0.416-0.416,0.733-0.819c0.645-0.846,1.285-1.27,1.917-1.27c0.459,0,0.822,0.128,1.088,0.387
			c0.266,0.259,0.399,0.618,0.399,1.077c0,2.327-0.202,3.836-0.604,4.525c-0.403,0.69-1.271,1.034-2.607,1.034h-22.386
			c-0.475,0-0.833-0.1-1.078-0.301c-0.243-0.202-0.365-0.495-0.365-0.884c0-0.343,0.064-0.624,0.194-0.84
			c0.129-0.215,0.431-0.451,0.904-0.71c0.389-0.201,0.646-0.395,0.776-0.581c0.13-0.188,0.194-0.526,0.194-1.013v-0.217V15.321
			c0-0.372-0.036-0.646-0.107-0.819c-0.072-0.171-0.267-0.38-0.582-0.624c-0.058-0.044-0.122-0.094-0.194-0.151
			c-0.56-0.388-0.84-0.854-0.84-1.4c0-0.474,0.158-0.823,0.474-1.045c0.316-0.223,0.819-0.334,1.509-0.334h19.068
			c1.824,0,2.952,0.299,3.383,0.894c0.431,0.597,0.646,1.964,0.646,4.105c0,0.576-0.086,0.998-0.259,1.272
			c-0.172,0.272-0.445,0.409-0.818,0.409c-0.574,0-1.257-0.409-2.047-1.228c-0.359-0.358-0.646-0.633-0.862-0.819
			c-0.545-0.474-1.311-0.819-2.294-1.034c-0.984-0.215-2.281-0.324-3.89-0.324h-2.866c-0.904,0-1.519,0.176-1.841,0.529
			c-0.323,0.351-0.485,1.158-0.485,2.423v6.485h7.283c0.488,0,0.916-0.029,1.282-0.086c0.366-0.057,0.628-0.128,0.787-0.215
			c0.1-0.057,0.237-0.159,0.408-0.301c0.532-0.418,1.027-0.625,1.487-0.625c0.46,0,0.819,0.149,1.078,0.453
			c0.258,0.301,0.388,0.725,0.388,1.27v2.737c0,0.717-0.115,1.228-0.345,1.529c-0.23,0.303-0.619,0.453-1.164,0.453
			c-0.244,0-0.754-0.236-1.529-0.711c-0.776-0.474-1.616-0.71-2.522-0.71h-7.153v10.276c0,0.662,0.129,1.099,0.388,1.316
			c0.258,0.215,0.847,0.322,1.767,0.322H303.21z"/>
	</g>
	<g>
		<g>
			<path fill-rule="evenodd" clip-rule="evenodd" fill="#4E87E1" d="M325.721,11.125h23.147c2.429,0,4.416,1.987,4.416,4.417v23.146
				c0,2.431-1.987,4.418-4.416,4.418h-23.147c-2.431,0-4.418-1.987-4.418-4.418V15.542C321.303,13.112,323.29,11.125,325.721,11.125
				"/>
		</g>
	</g>
	<g>
		<path fill="#335994" d="M345.938,24.126c-1.163-0.188-2.561-0.414-4.192-0.719l-0.418-0.077l-0.204-0.375
			c-0.825-1.506-1.461-2.737-1.993-3.762c-1.155-2.232-1.734-3.351-1.849-3.351c-0.112,0-0.689,1.119-1.84,3.357
			c-0.526,1.024-1.163,2.26-1.983,3.768l-0.204,0.374l-0.416,0.079c-1.631,0.307-3.031,0.539-4.193,0.729
			c-2.482,0.409-3.723,0.616-3.758,0.721c-0.036,0.113,0.85,1.007,2.621,2.793c0.836,0.84,1.844,1.857,2.972,3.046l0.292,0.307
			l-0.054,0.42c-0.229,1.784-0.432,3.111-0.599,4.216c-0.378,2.486-0.568,3.731-0.474,3.798c0.094,0.069,1.22-0.499,3.466-1.633
			c1.055-0.533,2.325-1.176,3.817-1.883l0.38-0.181l0.381,0.181c1.433,0.677,2.735,1.331,3.817,1.874
			c2.252,1.13,3.378,1.694,3.472,1.625v-0.002c0.094-0.067-0.098-1.312-0.481-3.796c-0.18-1.167-0.399-2.571-0.612-4.213
			l-0.056-0.422l0.29-0.307c1.151-1.22,2.141-2.224,2.962-3.056c1.769-1.79,2.653-2.686,2.616-2.797
			c-0.034-0.107-1.279-0.311-3.761-0.713V24.126z M342.486,21.729c1.452,0.267,2.691,0.468,3.735,0.637h0.002
			c3.202,0.52,4.803,0.779,5.175,1.924c0.374,1.143-0.766,2.296-3.042,4.602c-0.748,0.758-1.634,1.658-2.645,2.722
			c0.196,1.468,0.387,2.707,0.549,3.749c0.497,3.205,0.742,4.811-0.23,5.519l-0.002-0.001c-0.971,0.704-2.421-0.021-5.317-1.475
			c-0.921-0.462-2.014-1.011-3.399-1.671c-1.337,0.641-2.453,1.205-3.395,1.68c-2.897,1.462-4.345,2.192-5.319,1.487
			c-0.977-0.708-0.733-2.31-0.246-5.513c0.165-1.093,0.364-2.392,0.543-3.752c-1.032-1.083-1.911-1.968-2.649-2.712
			c-2.285-2.302-3.426-3.455-3.056-4.597c0.37-1.147,1.97-1.412,5.17-1.937c1.043-0.173,2.281-0.376,3.734-0.646
			c0.683-1.262,1.268-2.402,1.763-3.361c1.479-2.879,2.221-4.32,3.426-4.322c1.203,0,1.949,1.438,3.438,4.316
			C341.214,19.333,341.803,20.47,342.486,21.729z"/>
	</g>
	<g>
		<path fill-rule="evenodd" clip-rule="evenodd" fill="#FFF017" d="M341.907,22.026c11.327,2.112,10.765,0.391,2.864,8.776
			c1.49,11.425,2.954,10.36-7.462,5.436c-10.407,4.951-8.939,6.01-7.476-5.417c-7.922-8.366-8.481-6.643,2.841-8.784
			C338.184,11.918,336.373,11.918,341.907,22.026"/>
	</g>
	<g>
		<g>
			<path fill="#4E87E1" d="M333.42,34.217c-0.178,0-0.316-0.041-0.411-0.119c-0.094-0.081-0.14-0.19-0.14-0.334
				c0-0.193,0.172-0.384,0.52-0.571c0.037-0.021,0.06-0.033,0.071-0.041c0.063-0.031,0.111-0.075,0.134-0.138
				c0.027-0.06,0.04-0.161,0.04-0.305v-0.107v-7.973c0-0.203-0.019-0.345-0.056-0.424c-0.035-0.081-0.104-0.155-0.207-0.234
				c-0.017-0.016-0.052-0.037-0.098-0.067c-0.2-0.134-0.297-0.299-0.297-0.499c0-0.159,0.065-0.284,0.197-0.372
				c0.132-0.088,0.324-0.134,0.574-0.134h6.892c0.476,0,0.785,0.115,0.929,0.347c0.142,0.234,0.213,0.73,0.213,1.49
				c0,0.282-0.035,0.481-0.105,0.608c-0.071,0.125-0.186,0.188-0.345,0.188c-0.194,0-0.43-0.172-0.71-0.52
				c-0.077-0.098-0.138-0.175-0.184-0.23c-0.211-0.24-0.472-0.409-0.788-0.508c-0.315-0.1-0.796-0.15-1.439-0.15h-0.909
				c-0.326,0-0.545,0.06-0.658,0.182c-0.111,0.125-0.171,0.409-0.171,0.85v2.616h2.366c0.174,0,0.318-0.009,0.432-0.03
				c0.117-0.021,0.214-0.05,0.301-0.092c0.058-0.031,0.159-0.125,0.307-0.282c0.149-0.159,0.288-0.238,0.42-0.238
				c0.144,0,0.255,0.063,0.341,0.188c0.085,0.126,0.125,0.295,0.125,0.514v1.241c0,0.213-0.04,0.384-0.125,0.506
				c-0.086,0.123-0.197,0.184-0.341,0.184c-0.119,0-0.288-0.1-0.497-0.299c-0.071-0.073-0.131-0.128-0.175-0.169
				c-0.069-0.056-0.167-0.1-0.297-0.128c-0.134-0.032-0.297-0.046-0.491-0.046h-2.366v3.48c0,0.149,0.021,0.265,0.062,0.345
				c0.042,0.081,0.109,0.144,0.209,0.192c0.032,0.013,0.088,0.038,0.159,0.065c0.32,0.14,0.483,0.315,0.483,0.529
				c0,0.169-0.056,0.292-0.163,0.367c-0.105,0.077-0.276,0.117-0.51,0.117H333.42z"/>
		</g>
	</g>
</g>
</svg>
